<?xml version="1.0" encoding="utf-8"?>
<!-- Generator: Adobe Illustrator 27.7.0, SVG Export Plug-In . SVG Version: 6.00 Build 0)  -->
<svg version="1.1" id="Layer_1" xmlns="http://www.w3.org/2000/svg" xmlns:xlink="http://www.w3.org/1999/xlink" x="0px" y="0px"
	 viewBox="0 0 167.7 74.3" style="enable-background:new 0 0 167.7 74.3;" xml:space="preserve">
<style type="text/css">
	.st0{fill-rule:evenodd;clip-rule:evenodd;fill:#6633CC;}
	.st1{fill-rule:evenodd;clip-rule:evenodd;fill:#52297E;}
	.st2{fill:#33CC66;}
	.st3{enable-background:new    ;}
	.st4{fill:#6633CC;}
</style>
<path class="st0" d="M39.7,28.8c-1.5,3.1-3.5,5.8-7,7c-0.9,0.2-3.3,0.2-4.3-0.1C27.1,30.6,30.8,25,34.2,21c2.4-3.1,6-5.1,10-6.5
	C42.7,19.6,42.1,24.3,39.7,28.8"/>
<path class="st0" d="M22.4,32.5c-7.8-4.7-7.5-12.1-5.1-17.4c0,0,3.1-0.9,5.7,4.6C23,19.6,18.1,25.2,22.4,32.5z"/>
<path class="st0" d="M37.1,16.7c-5.4,4.2-11.7,11.8-9.9,19c-3.1-0.8-4.4-3.6-5.1-6.8c-0.6-3.3-0.2-6.7,2-9.2c2-2.3,4.9-5.7,4.6-10
	C31.9,10.9,36.1,13.5,37.1,16.7"/>
<path class="st1" d="M162.7,67.7c-0.1-0.1-0.1-0.1-0.2-0.1c-0.1,0-0.1,0-0.1,0.1c0,0.2,0.4,0.2,0.4,0.4c0,0.1-0.1,0.2-0.2,0.2
	c-0.1,0-0.2,0-0.2-0.1v-0.1c0.1,0.1,0.1,0.1,0.2,0.1c0.1,0,0.1-0.1,0.1-0.1c0-0.2-0.4-0.2-0.4-0.4c0-0.1,0.1-0.2,0.2-0.2
	C162.6,67.5,162.6,67.5,162.7,67.7L162.7,67.7z"/>
<polygon class="st1" points="163.7,68.3 163.5,68.3 163.5,67.7 163.3,68 163.3,68 163,67.7 163,67.7 163,68.3 162.9,68.3 
	162.9,67.5 163,67.5 163.3,67.8 163.5,67.5 163.7,67.5 "/>
<path class="st2" d="M27.4,36.5c-0.3-0.1-0.5,0.1-0.5,0.3c-1.9,3.9-2.8,8.1-3.9,12.3c-1.3-4.2-3-8.3-5.1-12.2
	c-4-7.7-6.5-12.5-13-17.2c-0.3-0.2-0.4,0-0.3,0.3c5.9,5.5,8.3,12.4,12.2,19.6c3,8.3,8.2,23.2,5,26c0.2,1.7,1.4,3,2.9,2.7
	c0.6-0.1,1.1-0.4,1.5-0.8c0.4-0.5,0.7-1.1,0.8-1.8c-1.4-2.7-2.4-5.5-2.4-8.3c0-0.3,8.6-11,8.6-11.3c0-0.9-8.4,8.4-8.3,7.5
	c0.2-1.9,0.5-3.7,1-5.5c0.9-3.6,1.4-7.2,1.9-11C27.8,36.8,27.6,36.6,27.4,36.5"/>
<g class="st3">
	<path class="st4" d="M36.2,40.3h11.9v5.4h-4.9v5.1h4.3V56h-4.3v11.3h-7C36.2,67.3,36.2,40.3,36.2,40.3z"/>
	<path class="st4" d="M56.6,40.3v27h-6.9v-27C49.7,40.3,56.6,40.3,56.6,40.3z"/>
	<path class="st4" d="M74.2,52.9v5.4c0,2-0.1,3.4-0.3,4.4c-0.2,0.9-0.6,1.8-1.3,2.6s-1.5,1.4-2.5,1.8s-2.2,0.6-3.5,0.6
		c-1.5,0-2.8-0.2-3.8-0.5s-1.8-0.8-2.4-1.5s-1-1.5-1.2-2.4s-0.4-2.3-0.4-4.2v-5.7c0-2.1,0.2-3.7,0.7-4.8s1.2-2.1,2.4-2.8
		s2.6-1,4.4-1c1.5,0,2.8,0.2,3.9,0.7s1.9,1,2.5,1.8s1,1.5,1.2,2.2C74.1,50.2,74.2,51.4,74.2,52.9z M67.5,51.3c0-1.1-0.1-1.8-0.2-2.1
		s-0.4-0.4-0.8-0.4s-0.7,0.1-0.8,0.4c-0.1,0.3-0.2,1-0.2,2.1v10c0,1,0.1,1.7,0.2,2s0.4,0.5,0.8,0.5s0.7-0.1,0.8-0.4
		c0.1-0.3,0.2-0.9,0.2-1.9V51.3z"/>
	<path class="st4" d="M83.2,45.2l-0.3,2.9c1-2.1,2.4-3.2,4.3-3.3v7.8c-1.2,0-2.1,0.2-2.7,0.5s-0.9,0.8-1.1,1.4
		c-0.1,0.6-0.2,2-0.2,4.1v8.7h-6.7V45.2H83.2z"/>
	<path class="st4" d="M94.7,53.7h-6.3v-1.5c0-1.7,0.2-3,0.6-4s1.2-1.7,2.4-2.5c1.2-0.7,2.7-1.1,4.6-1.1c2.3,0,4,0.4,5.2,1.2
		s1.9,1.8,2.1,3s0.3,3.6,0.3,7.2v11.1H97v-2c-0.4,0.8-0.9,1.4-1.6,1.8c-0.6,0.4-1.4,0.6-2.3,0.6c-1.2,0-2.3-0.3-3.2-1
		s-1.5-2.1-1.5-4.3v-1.8c0-1.7,0.3-2.8,0.8-3.4c0.5-0.6,1.8-1.3,3.9-2.1c2.2-0.9,3.4-1.5,3.6-1.8s0.2-0.9,0.2-1.8
		c0-1.2-0.1-1.9-0.3-2.3c-0.2-0.4-0.5-0.5-0.9-0.5c-0.5,0-0.7,0.1-0.8,0.4c-0.1,0.3-0.2,1.1-0.2,2.3V53.7z M96.8,56.8
		c-1.1,0.8-1.7,1.5-1.9,2c-0.2,0.5-0.3,1.3-0.3,2.3c0,1.1,0.1,1.9,0.2,2.2c0.2,0.3,0.4,0.5,0.9,0.5c0.4,0,0.7-0.1,0.8-0.4
		c0.1-0.3,0.2-0.9,0.2-2.1v-4.5H96.8z"/>
	<path class="st4" d="M112.8,40.3v27h-6.9v-27C105.9,40.3,112.8,40.3,112.8,40.3z"/>
	<path class="st4" d="M129,52.2h-6V51c0-1-0.1-1.7-0.2-1.9c-0.1-0.3-0.4-0.4-0.9-0.4c-0.4,0-0.7,0.1-0.9,0.4
		c-0.2,0.2-0.3,0.6-0.3,1.1c0,0.7,0,1.2,0.1,1.5s0.4,0.7,0.9,1c0.5,0.4,1.4,0.9,2.9,1.7c2,1,3.2,1.9,3.9,2.7s0.9,2.1,0.9,3.7
		c0,1.8-0.2,3.2-0.7,4.1s-1.2,1.6-2.3,2.1s-2.4,0.7-4,0.7c-1.7,0-3.2-0.3-4.4-0.8c-1.2-0.5-2.1-1.3-2.5-2.2
		c-0.5-0.9-0.7-2.3-0.7-4.1v-1.1h6v1.4c0,1.2,0.1,2,0.2,2.3c0.1,0.4,0.4,0.5,0.9,0.5s0.8-0.1,1-0.4c0.2-0.2,0.3-0.7,0.3-1.5
		c0-1.1-0.1-1.7-0.4-2s-1.6-1.1-3.9-2.4c-2-1.1-3.2-2.1-3.6-3s-0.7-2-0.7-3.2c0-1.8,0.2-3.1,0.7-3.9c0.5-0.8,1.3-1.5,2.4-1.9
		c1.1-0.5,2.4-0.7,3.9-0.7s2.7,0.2,3.7,0.6c1,0.4,1.8,0.9,2.4,1.5s0.9,1.2,1,1.7s0.2,1.3,0.2,2.5v1.2H129z"/>
</g>
<g class="st3">
	<path class="st4" d="M132.8,64.7v2.6h-2.4v-2.6H132.8z"/>
	<path class="st4" d="M140.8,60.7h-3.1v-1.2c0-0.4,0-0.7-0.1-0.9s-0.2-0.2-0.4-0.2s-0.3,0.1-0.4,0.2c-0.1,0.1-0.1,0.4-0.1,0.9v5
		c0,0.4,0,0.7,0.1,0.9c0.1,0.2,0.2,0.3,0.4,0.3s0.4-0.1,0.4-0.3c0.1-0.2,0.1-0.6,0.1-1.1V63h2.9c0,0.8,0,1.5-0.1,1.9
		s-0.2,0.9-0.5,1.3s-0.7,0.8-1.2,1s-1.1,0.3-1.8,0.3c-0.9,0-1.6-0.2-2.2-0.5c-0.5-0.3-0.9-0.8-1.1-1.3c-0.2-0.6-0.3-1.4-0.3-2.4v-3
		c0-0.9,0.1-1.6,0.3-2c0.2-0.5,0.6-0.9,1.2-1.2c0.6-0.4,1.3-0.5,2.2-0.5c0.8,0,1.6,0.2,2.2,0.5s1,0.8,1.2,1.4
		C140.7,58.9,140.8,59.7,140.8,60.7z"/>
	<path class="st4" d="M149.1,60.4V63c0,1,0,1.7-0.1,2.1s-0.3,0.9-0.6,1.3s-0.7,0.7-1.2,0.9c-0.5,0.2-1.1,0.3-1.7,0.3
		c-0.7,0-1.3-0.1-1.8-0.2c-0.5-0.2-0.9-0.4-1.2-0.7s-0.5-0.7-0.6-1.2s-0.2-1.1-0.2-2v-2.7c0-1,0.1-1.8,0.3-2.3
		c0.2-0.6,0.6-1,1.2-1.3c0.6-0.3,1.3-0.5,2.1-0.5c0.7,0,1.4,0.1,1.9,0.3s0.9,0.5,1.2,0.8s0.5,0.7,0.6,1.1
		C149.1,59.1,149.1,59.6,149.1,60.4z M145.9,59.6c0-0.5,0-0.9-0.1-1s-0.2-0.2-0.4-0.2s-0.3,0.1-0.4,0.2s-0.1,0.5-0.1,1v4.8
		c0,0.5,0,0.8,0.1,1s0.2,0.2,0.4,0.2s0.3-0.1,0.4-0.2c0.1-0.1,0.1-0.4,0.1-0.9V59.6z"/>
	<path class="st4" d="M153.4,56.7l-0.1,1c0.3-0.4,0.5-0.7,0.9-0.9s0.7-0.3,1.2-0.3c0.9,0,1.5,0.4,2,1.2c0.3-0.4,0.6-0.7,0.9-0.9
		c0.3-0.2,0.7-0.3,1.1-0.3c0.6,0,1,0.1,1.4,0.4c0.4,0.3,0.6,0.6,0.7,1c0.1,0.4,0.2,1,0.2,1.9v7.6h-3.1v-6.9c0-0.9,0-1.5-0.1-1.7
		s-0.2-0.3-0.4-0.3s-0.4,0.1-0.4,0.3c-0.1,0.2-0.1,0.8-0.1,1.7v6.9h-3.1v-6.8c0-1,0-1.7-0.1-1.9s-0.2-0.3-0.4-0.3
		c-0.1,0-0.3,0.1-0.4,0.2s-0.2,0.2-0.2,0.4c0,0.2,0,0.5,0,1v7.4h-3.1V56.7H153.4z"/>
</g>
<g class="st3">
	<path class="st2" d="M64.1,25.7v15.9h-4v-8.5c0-1.2,0-2-0.1-2.2s-0.2-0.4-0.5-0.6s-0.9-0.2-1.8-0.2h-0.4v-1.9
		c1.9-0.4,3.4-1.3,4.4-2.5C61.7,25.7,64.1,25.7,64.1,25.7z"/>
	<path class="st2" d="M70.6,33.7v2.7h-5.2v-2.7H70.6z"/>
	<path class="st2" d="M71.6,37.4h4c0,0.7,0,1.2,0,1.4s0.1,0.4,0.2,0.5s0.3,0.2,0.6,0.2c0.2,0,0.4-0.1,0.5-0.2
		c0.1-0.1,0.2-0.3,0.2-0.5s0-0.6,0-1.2v-2.5c-0.2,0.4-0.5,0.7-0.9,1c-0.4,0.2-0.9,0.3-1.5,0.3c-0.7,0-1.4-0.2-1.9-0.6
		c-0.6-0.4-0.9-0.9-1.1-1.4s-0.2-1.3-0.2-2.2v-1.3c0-1.1,0-1.9,0.1-2.5c0.1-0.5,0.3-1,0.7-1.5c0.4-0.5,0.9-0.8,1.5-1.1
		c0.6-0.3,1.4-0.4,2.3-0.4c1.1,0,1.9,0.1,2.6,0.4s1.2,0.7,1.6,1.3c0.4,0.6,0.6,1.1,0.6,1.7c0.1,0.6,0.1,1.8,0.1,3.5v2.2
		c0,1.9,0,3.2-0.1,3.8s-0.3,1.2-0.7,1.8c-0.4,0.6-0.9,1-1.6,1.3s-1.5,0.4-2.4,0.4c-1.1,0-2-0.2-2.7-0.5c-0.7-0.4-1.2-0.9-1.5-1.5
		C71.8,39.2,71.6,38.4,71.6,37.4z M75.6,32.4c0,0.7,0.1,1.1,0.3,1.2s0.4,0.2,0.5,0.2c0.3,0,0.5-0.1,0.6-0.3s0.2-0.6,0.2-1.2v-2.9
		c0-0.7-0.1-1.2-0.2-1.4s-0.3-0.3-0.6-0.3c-0.2,0-0.3,0.1-0.5,0.3s-0.3,0.6-0.3,1.4V32.4z"/>
	<path class="st2" d="M91.9,31.1v5.3c0,1.2-0.1,2.1-0.2,2.6c-0.1,0.6-0.4,1.1-0.8,1.5c-0.4,0.5-0.9,0.8-1.5,1s-1.2,0.3-2,0.3
		c-1,0-1.7-0.1-2.4-0.3c-0.6-0.2-1.1-0.6-1.5-1s-0.6-1-0.8-1.5c-0.2-0.5-0.2-1.3-0.2-2.5v-5.6c0-1.5,0.1-2.6,0.4-3.3
		s0.8-1.3,1.5-1.8c0.8-0.4,1.7-0.7,2.7-0.7c0.9,0,1.7,0.2,2.3,0.5s1.2,0.7,1.5,1.1s0.6,0.9,0.7,1.5C91.8,29,91.9,29.9,91.9,31.1z
		 M87.9,29.7c0-0.8,0-1.4-0.1-1.6s-0.3-0.3-0.6-0.3c-0.3,0-0.5,0.1-0.6,0.3s-0.1,0.7-0.1,1.6v7.8c0,0.9,0,1.5,0.1,1.7
		s0.3,0.3,0.6,0.3s0.5-0.1,0.6-0.3s0.1-0.7,0.1-1.5V29.7z"/>
	<path class="st2" d="M102.7,31.1v5.3c0,1.2-0.1,2.1-0.2,2.6c-0.1,0.6-0.4,1.1-0.8,1.5c-0.4,0.5-0.9,0.8-1.5,1s-1.2,0.3-2,0.3
		c-1,0-1.7-0.1-2.4-0.3c-0.6-0.2-1.1-0.6-1.5-1s-0.6-1-0.8-1.5c-0.2-0.5-0.2-1.3-0.2-2.5v-5.6c0-1.5,0.1-2.6,0.4-3.3
		s0.8-1.3,1.5-1.8c0.8-0.4,1.7-0.7,2.7-0.7c0.9,0,1.7,0.2,2.3,0.5s1.2,0.7,1.5,1.1s0.6,0.9,0.7,1.5C102.6,29,102.7,29.9,102.7,31.1z
		 M98.7,29.7c0-0.8,0-1.4-0.1-1.6s-0.3-0.3-0.6-0.3c-0.3,0-0.5,0.1-0.6,0.3s-0.1,0.7-0.1,1.6v7.8c0,0.9,0,1.5,0.1,1.7
		s0.3,0.3,0.6,0.3s0.5-0.1,0.6-0.3s0.1-0.7,0.1-1.5V29.7z"/>
</g>
</svg>
