<?xml version="1.0" encoding="utf-8"?>
<!-- Generator: Adobe Illustrator 27.7.0, SVG Export Plug-In . SVG Version: 6.00 Build 0)  -->
<svg version="1.1" id="art" xmlns="http://www.w3.org/2000/svg" xmlns:xlink="http://www.w3.org/1999/xlink" x="0px" y="0px"
	 viewBox="0 0 819.4 283.5" style="enable-background:new 0 0 819.4 283.5;" xml:space="preserve">
<style type="text/css">
	.st0{fill:#2F2F2F;}
</style>
<g>
	<path class="st0" d="M212.3,259.7c0,0-3.4-0.9-22.7-0.4c-32.1,0.4-132.9-4.8-132.9-4.8c-3.1,0-5.4,4.7-5.4,10.5
		c0,1.9,0.2,3.2,0.5,4.7c0.6,3.5,2,10.2,4.8,10.2c3,0,5.9-2.6,11-3.8c2.4-0.4,5.1-1.2,7.9-2.2c24.2-1.3,64.2-3.9,75-3.5
		c15.7,0.7,61.7-0.3,61.7-0.3c1.7,0,3.1-2.6,3.1-5.4C215.4,262.3,214.1,259.7,212.3,259.7z"/>
	<path class="st0" d="M767,264.9c0-5.4-1.7-9.6-4.2-10.5c-0.2-0.3-3.1,0-3.3,0c-13.8,2.2-155.6,5.4-166,5.4c-10.7,0-268.3,0-268.3,0
		c-1.6,0-3,2.6-3,5.4c0,3.1,1.2,5.4,3,5.4c0,0,204.2,0.9,220,0c13.3-0.9,155.4,3.2,202,4.7c1.4,0.4,2.8,0.7,4.2,0.9
		c4.8,1.2,7.8,3.8,10.6,3.8c2.5,0,4-6.5,4.5-10C766.8,268.3,767,266.7,767,264.9z"/>
</g>
<path class="st0" d="M462.2,134.2c-0.7-2.3-1.9-3.5-3.3-3.8c-1.4-0.4-11.6,6.3-21.6,7c-10.3,0.7-13.8-3.5-14.8-2.6
	c-1.4,1.2-2.7,3.8-2,7.4c0.7,6.3,3.2,5.4,4.1,4.7c2.4-1.2,4.5-0.9,6.9,3.1c3.2,5.7,0,30-11.1,38.9c-7.3-17-10.1-35.7-8.7-56.2
	c9.1-10.8,23.8-19.5,29.3-30.3c5.9-11.4,6.5-20.7,3.1-29.6c-4.1-10.2-16.9-8.6-25,3.5c-6.4,9.6-13.6,30.6-14.8,47.8
	c-11.6,9.8-31.3,27.3-30.3,61.6c0.7,28.7,23,39.6,45.2,19.1c4.7,5.4,12.3,11.4,15.7,11.4c1,0,2.5-2.3,2.8-3.9c0.2-1.3-0.2-3.5-1-3.9
	c-1-0.4-6.9-2.8-10.9-9.8c6.7-7.3,22.5-33.1,15.2-52.9c12.1-3.2,16.3-5.1,20.9-5.7C462.2,140,463,136.7,462.2,134.2z M424.1,85.8
	c4.1-5.4,8.2-8.6,10.6-3.9c1.7,3.2,0.1,12.1-5.3,18.7c-5,6.1-10.2,9.8-16,15.2C414.5,106.2,420.7,90.8,424.1,85.8z M386.2,189.7
	c-3.6-16.8,5.4-40.8,16.9-50.9c0.5,20.1,2.4,37.3,11.1,56.7C401.6,205.7,389.3,203.7,386.2,189.7z"/>
<g>
	<path class="st0" d="M39.6,201.1c-0.1-3.8,0.5-6.1,1.5-9.6l26.2-98.2c0.6-2.8,2.2-4.7,4-4.7c2.5,0,4.3,3.5,4.3,8.2
		c0,1.2-0.1,2.8-0.5,3.8l-25.8,96.2h1.4c11.7,0,35-11.7,40.6-17.9c-1.5-5.8-7.9-18.7-12.3-26.4c-1.7-3.1-2.4-6.1-1.9-10.5V141
		c0.2-4.4,1.1-7,2.7-8.4l2.4-2.2C95.9,117.5,125,90,125,75.4c0-3.5-21-10.5-46.2-10.5c-20.9,0-46.5,10.8-68.3,31.2
		c-0.6,0.7-1.4,0.9-1.9,0.9c-2.5,0-4.3-3.5-4.3-8.2c0-3.2,1.1-6.1,2.6-7.4C29.6,60,56.8,48.2,78.9,48.2c27.6,0,54.8,7.3,54.8,26.8
		c0,25.5-32.1,55.1-46.6,68.6c5.7,10.5,13.5,26.8,13.5,36.9c0,2.8-0.5,5.7-1.5,7.4c-4.9,10.5-34.7,24.8-48.2,24.8
		C43.2,213,39.7,207.8,39.6,201.1z"/>
	<path class="st0" d="M108.5,181.3c0-40.1,22.6-67.9,43.9-70.4h0.5c2.5-0.3,4.3,3.5,4.3,8.2c0,4.2-1.6,7.7-3.9,8.2
		c-19,4.4-36.3,23.8-36.3,54.1c0,6.3,0.6,7.9,2.8,7.9c3.1,0,19.4-22,30.6-45l0.5-2.2c1-3.8,2.2-7.3,4.2-7.4
		c8.6-0.9,8.7,5.1,4.2,15.2l-1.7,3.8l-3.2,11.7c-2.5,8.9-4.4,16.2-5.6,21.3c6.7-5.1,18.4-22.9,32.7-45.7c0.9-1.2,1.7-2.2,2.8-2.2
		c2.5,0,4.3,3.5,4.3,8.2c0,2.6-0.5,4.7-1.5,6.1c-16.7,27.3-32,50.9-41.3,51c-4,0-6.4-5.1-6.4-12.1c0-2.6,0.2-5.4,0.9-8.4
		c-8.5,12.7-16.7,21.7-20.5,21.7C113.9,205.6,108.5,196.4,108.5,181.3z"/>
	<path class="st0" d="M197.8,189.9c0-7.9,3.9-22.2,9.3-44.6c0.6-2.6,1-4.4,1.2-5.4c-0.2,0.4-0.9,0.4-2.4,0.3
		c-3.6-0.4-6.7-0.9-9.5-1.9l-0.6,1.6l-8.5,13.3c-0.9,1.2-1.7,2.2-2.8,2.2c-2.5,0-4.3-3.5-4.3-8.2c0-2.6,0.5-4.8,1.5-6.1l4.1-6.3
		c-3.3-2.6-4.2-5.8-4.2-10.2c0-9.6,11.5-17.9,15.5-17.9c2.8,0,5.7,4.2,5.7,10c0,2.2-0.1,4.4-0.5,7l4.3,0.4c6.1,0.7,10.3,4.7,10.3,15
		c0,3.2-0.6,7.9-1.9,13.7c-3.1,12.4-5.4,21.3-6.7,27.7c1.9-3.1,4.7-7.4,8.7-13.7c4.2-7,9.4-15.4,16.2-25.7c0.6-0.9,1.6-1.9,2.7-1.9
		c2.5,0,4.3,3.5,4.3,8.2c0,2.6-0.6,4.8-1.6,6.3c-6.6,10.2-11.9,18.5-16.1,25.5c-9.6,15.4-14,22.6-18.7,22.6
		C200.2,201.5,197.8,196.9,197.8,189.9z"/>
	<path class="st0" d="M249.1,189.9c0-7.9,3.9-22.2,9.3-44.6c0.6-2.6,1-4.4,1.2-5.4c-0.2,0.4-0.9,0.4-2.4,0.3
		c-3.6-0.4-6.7-0.9-9.5-1.9l-0.6,1.6l-8.5,13.3c-0.9,1.2-1.7,2.2-2.8,2.2c-2.5,0-4.3-3.5-4.3-8.2c0-2.6,0.5-4.8,1.5-6.1l4.1-6.3
		c-3.3-2.6-4.2-5.8-4.2-10.2c0-9.6,11.5-17.9,15.5-17.9c2.8,0,5.7,4.2,5.7,10c0,2.2-0.1,4.4-0.5,7l4.3,0.4c6.1,0.7,10.3,4.7,10.3,15
		c0,3.2-0.6,7.9-1.9,13.7c-3.1,12.4-5.4,21.3-6.7,27.7c1.9-3.1,4.7-7.4,8.7-13.7c4.2-7,9.4-15.4,16.2-25.7c0.6-0.9,1.6-1.9,2.7-1.9
		c2.5,0,4.3,3.5,4.3,8.2c0,2.6-0.6,4.8-1.6,6.3c-6.6,10.2-11.9,18.5-16.1,25.5c-9.6,15.4-14,22.6-18.7,22.6
		C251.5,201.5,249.1,196.9,249.1,189.9z"/>
	<path class="st0" d="M240.1,262.3c0-13.3,17.9-28.7,37.7-48.1c9.3-8.9,19.6-19.1,29.6-29.4l4.9-22.9c-13.8,26.4-26.2,39.5-32,39.6
		c-3.6,0.3-6.1-4.7-6.1-11.7c0-9.3,4.9-28,13.6-62.8l1.9-7.9c0.6-2.8,2.2-4.8,4-4.8c2.5,0,4.3,3.5,4.3,8.2c0,1.2-0.1,2.6-0.3,3.5
		l-1.9,8.2c-6.5,25.7-10.3,41.1-12,49.4c7.3-5.4,21.9-24,36.5-58.6l1-4.4c1.1-4.7,3-6.3,5-6.3c9.2,0,8.1,9.8,0,24.8l-6.7,32.5
		c9.3-10.2,17.7-20.7,24.4-30.8c0.9-0.9,1.6-1.9,2.7-1.9c2.5,0,4.3,3.5,4.3,8.2c0,2.6-0.6,4.8-1.6,6.3
		c-7.4,11.2-21.3,27.1-34.7,41.5l-9.6,45.5c-7,32.5-16.9,42.7-34,42.7C257.1,283.4,240.1,277.9,240.1,262.3z M270.8,267.1
		c14.4,0,20.2-6.1,25.9-32.5l5.8-26.8c-10.1,10.5-18.3,18.7-20.8,21l-0.5,0.4c-19.5,19.1-32.5,31.8-32.5,33.1
		C248.6,263.2,260.3,267.1,270.8,267.1z"/>
</g>
<g>
	<path class="st0" d="M553.9,235.3c0-1.9,0.2-3.1,0.6-4.4c1.5-4.7,10-22,22.4-71.7c9.3-37,17.6-73.3,21.2-89.2
		c0.2-1.6-0.2-2.2-0.9-0.9c-4.9,9.6-17.1,35.7-29.5,61.6c-17.9,38.3-35.2,77.7-41.9,77.7c-5.9,0-7.8-76.8-9.2-98.5
		c-0.1-1.6-0.6-1.9-1.1-0.4c-2.8,9.6-7.7,26.8-10.6,36.6c-5.1,18.2-9.2,32.5-10.8,36.4l-0.1,0.3c-0.6,1.9-1.8,2.8-3.2,2.8
		c-2.5,0-4.3-3.5-4.3-8.2c0-2.3,0.3-3.8,1.1-5.4c0.3-0.7,5-16.3,10-34.1c7.5-26.8,16.3-63.4,22.5-63.4c5.7,0,5.6,30.6,6.7,61.1
		c1,22.2,1.7,37.3,2.7,48.1c0.1,1.2,0.6,1.6,1.1,0.4c10.2-21,14.2-29.4,30.5-64C585,69.2,593,48.8,600.6,48.8
		c3.6,0,8.7,4.8,7.4,17.2c-3.2,31.5-42.1,161.6-46.5,173.7c-0.9,2.3-1.9,3.8-3.6,3.8C555.9,243.5,553.9,240,553.9,235.3z"/>
	<path class="st0" d="M594.9,181.3c0-40.1,22.6-67.9,43.9-70.4h0.5c2.5-0.3,4.3,3.5,4.3,8.2c0,4.2-1.6,7.7-3.9,8.2
		c-19,4.4-36.3,23.8-36.3,54.1c0,6.3,0.6,7.9,2.8,7.9c3.1,0,19.4-22,30.6-45l0.5-2.2c1-3.8,2.2-7.3,4.2-7.4
		c8.6-0.9,8.7,5.1,4.2,15.2l-1.7,3.8l-3.2,11.7c-2.5,8.9-4.4,16.2-5.6,21.3c6.7-5.1,18.4-22.9,32.7-45.7c0.9-1.2,1.7-2.2,2.8-2.2
		c2.5,0,4.3,3.5,4.3,8.2c0,2.6-0.5,4.7-1.5,6.1c-16.7,27.3-32,50.9-41.3,51c-4,0-6.4-5.1-6.4-12.1c0-2.6,0.2-5.4,0.9-8.4
		c-8.5,12.7-16.7,21.7-20.5,21.7C600.4,205.6,594.9,196.4,594.9,181.3z"/>
	<path class="st0" d="M659,200.2l11.1-79.7c0.3-3.5,2.2-6.1,4.2-6.1c2.5,0,4.3,3.5,4.3,8.2c0,0.7,0,1.6-0.1,2.3l-8.1,58
		c10.2-10.8,20.1-24.2,27.1-36.1c2.8-18.9,7.8-39.5,12.3-39.5c5.3,0,7.5,9.6,7,16.3c-0.6,7.7-4.3,17.8-9.9,28.3
		c-1.4,5.8-2.6,11.4-2.8,16.2c3.3-1.2,7.7-6.3,24.7-27.3c0.6-0.7,1.5-1.2,2.4-1.2c2.5,0,4.3,3.5,4.3,8.2c0,2.8-0.9,5.4-1.9,7
		c-22,26.8-25.1,30-32.1,30c-3.2,0-5.8-4.7-5.9-13.5c-9.6,14.3-21.2,28-31.8,36.6C660.1,210.4,658.1,206.9,659,200.2z"/>
	<path class="st0" d="M717.8,189.7c0-9.3,4.9-28,13.6-62.8l1.9-7.9c0.6-2.8,2.2-4.8,4-4.8c2.5,0,4.3,3.5,4.3,8.2
		c0,1.2-0.1,2.6-0.3,3.5l-1.9,8.2c-6.4,24.8-10.2,40.1-11.9,48.5c5.1-4.8,14.8-18.2,31.5-42.3c0.6-0.9,1.6-1.6,2.6-1.6
		c2.5,0,4.3,3.5,4.3,8.2c0,2.6-0.6,5.1-1.7,6.7c-21.9,31-33.3,47.4-40.1,47.5C720.4,201.8,717.8,196.9,717.8,189.7z M740.5,87.4
		l6.7-25.9c0.6-2.8,2.2-4.7,4-4.7c2.5,0,4.3,3.5,4.3,8.2c0,1.2-0.1,2.6-0.5,3.8l-6.7,25.9c-0.6,2.8-2.2,4.7-4,4.7
		c-2.5,0-4.3-3.5-4.3-8.2C740,90,740.1,88.9,740.5,87.4z"/>
	<path class="st0" d="M752.4,191.5c0-4.4,1.6-7.9,4.1-9.6c4.1-2.2,8.1-4.4,12-6.7l-1.1-1.9c-5.7-9.3-10.6-16.6-10.6-24.2
		c0-18.5,25.8-36,44.7-38.3h0.2c2.5,0,4.3,3.5,4.3,8.2c0,4.4-1.7,7.9-4.1,8.2c-16.3,1.9-34.4,15-36.3,20.7c0.9-0.7,4.2,7.7,7.3,12.8
		c1.7,3.1,3.5,5.8,5,8.4c10.7-7.3,20.9-15.9,30.1-29c0.6-0.9,1.6-1.6,2.6-1.6c2.5,0,4.3,3.5,4.3,8.2c0,2.8-0.6,5.1-1.7,6.7
		c-9.4,13.3-19.7,22.6-30.4,29.6c-0.1,11.2-15.5,18.7-23.3,18.7C755.3,202.2,752.4,197.3,752.4,191.5z"/>
</g>
</svg>
