<?xml version="1.0" encoding="utf-8"?>
<!-- Generator: Adobe Illustrator 27.7.0, SVG Export Plug-In . SVG Version: 6.00 Build 0)  -->
<svg version="1.1" id="Layer_1" xmlns="http://www.w3.org/2000/svg" xmlns:xlink="http://www.w3.org/1999/xlink" x="0px" y="0px"
	 viewBox="0 0 86 32" style="enable-background:new 0 0 86 32;" xml:space="preserve">
<style type="text/css">
	.st0{fill:#993333;}
	.st1{enable-background:new    ;}
</style>
<g>
	<g>
		<g>
			<rect x="1.3" y="20.5" class="st0" width="27.7" height="0.4"/>
			<rect x="57" y="20.5" class="st0" width="27.7" height="0.4"/>
		</g>
	</g>
	<g class="st1">
		<path d="M39.3,22.5c0-0.9-0.1-2.1-0.1-2.9h0c-0.2,0.8-0.5,1.6-0.8,2.6l-1.2,3.3h-0.7l-1.1-3.2c-0.3-0.9-0.6-1.8-0.8-2.6h0
			c0,0.8-0.1,2-0.1,3l-0.2,2.9h-0.8l0.5-6.7H35l1.1,3.3c0.3,0.8,0.5,1.6,0.7,2.3h0c0.2-0.7,0.4-1.4,0.7-2.3l1.2-3.3h1.1l0.4,6.7
			h-0.8L39.3,22.5z"/>
		<path d="M42.6,23.3l-0.7,2.1H41l2.3-6.7h1l2.3,6.7h-0.9L45,23.3H42.6z M44.8,22.7l-0.7-1.9c-0.2-0.4-0.2-0.8-0.3-1.2h0
			c-0.1,0.4-0.2,0.8-0.3,1.2l-0.7,1.9H44.8z"/>
		<path d="M47.6,18.7h0.9v6h2.9v0.7h-3.7V18.7z"/>
		<path d="M52.4,18.7h0.9v6h2.9v0.7h-3.7V18.7z"/>
	</g>
	<g class="st1">
		<path d="M7.5,15.4c-0.3,0.1-1,0.3-1.9,0.3c-2.6,0-3.9-1.6-3.9-3.7c0-2.5,1.8-3.9,4-3.9c0.9,0,1.5,0.2,1.8,0.3L7.2,9.8
			C6.9,9.6,6.4,9.5,5.8,9.5c-1.3,0-2.4,0.8-2.4,2.5c0,1.5,0.9,2.4,2.4,2.4c0.5,0,1.1-0.1,1.4-0.2L7.5,15.4z"/>
		<path d="M10.3,8.2v4.3c0,1.3,0.5,1.9,1.3,1.9c0.9,0,1.4-0.6,1.4-1.9V8.2h1.7v4.2c0,2.3-1.2,3.4-3.1,3.4c-1.9,0-3-1-3-3.4V8.2H10.3
			z"/>
		<path d="M16.2,13.9c0.4,0.2,1.1,0.5,1.9,0.5c0.8,0,1.2-0.3,1.2-0.8c0-0.5-0.4-0.7-1.2-1c-1.2-0.4-2-1.1-2-2.2
			c0-1.3,1.1-2.2,2.8-2.2c0.8,0,1.5,0.2,1.9,0.4l-0.4,1.3c-0.3-0.1-0.8-0.4-1.5-0.4c-0.7,0-1.1,0.3-1.1,0.7c0,0.5,0.4,0.7,1.4,1
			c1.3,0.5,1.9,1.2,1.9,2.2c0,1.2-0.9,2.3-3,2.3c-0.8,0-1.7-0.2-2.1-0.5L16.2,13.9z"/>
		<path d="M23.5,9.6h-2V8.2h5.7v1.4h-2v6h-1.7V9.6z"/>
		<path d="M34.5,11.9c0,2.4-1.5,3.9-3.6,3.9c-2.2,0-3.5-1.7-3.5-3.8c0-2.2,1.4-3.9,3.6-3.9C33.3,8.1,34.5,9.8,34.5,11.9z M29.2,11.9
			c0,1.5,0.7,2.5,1.8,2.5c1.1,0,1.8-1.1,1.8-2.5c0-1.3-0.6-2.5-1.8-2.5C29.8,9.4,29.2,10.5,29.2,11.9z"/>
		<path d="M41.9,12.8c0-0.9-0.1-2-0.1-3h0c-0.2,0.9-0.6,2-0.8,2.9l-0.9,2.9h-1.3L38,12.7c-0.2-0.9-0.5-1.9-0.7-2.9h0
			c0,1-0.1,2.1-0.1,3.1L37,15.6h-1.6l0.5-7.4h2.2l0.7,2.5c0.2,0.9,0.5,1.8,0.6,2.7h0c0.2-0.9,0.5-1.8,0.7-2.7l0.8-2.5h2.2l0.4,7.4
			H42L41.9,12.8z"/>
		<path d="M46.6,8.2v7.4H45V8.2H46.6z"/>
		<path d="M47.6,14.7l3.5-5.1v0h-3.2V8.2h5.4v1l-3.5,5v0h3.5v1.4h-5.8V14.7z"/>
		<path d="M56.2,13.7l-0.5,1.9H54l2.3-7.4h2.2l2.3,7.4h-1.8l-0.6-1.9H56.2z M58.1,12.5l-0.5-1.6c-0.1-0.4-0.3-1-0.4-1.4h0
			c-0.1,0.4-0.2,1-0.3,1.4l-0.4,1.6H58.1z"/>
		<path d="M62.3,9.6h-2V8.2H66v1.4h-2v6h-1.7V9.6z"/>
		<path d="M68.5,8.2v7.4h-1.7V8.2H68.5z"/>
		<path d="M76.8,11.9c0,2.4-1.5,3.9-3.6,3.9c-2.2,0-3.5-1.7-3.5-3.8c0-2.2,1.4-3.9,3.6-3.9C75.5,8.1,76.8,9.8,76.8,11.9z M71.4,11.9
			c0,1.5,0.7,2.5,1.8,2.5c1.1,0,1.8-1.1,1.8-2.5c0-1.3-0.6-2.5-1.8-2.5C72.1,9.4,71.4,10.5,71.4,11.9z"/>
		<path d="M77.9,15.6V8.2h2l1.5,2.7c0.4,0.8,0.9,1.7,1.2,2.5h0c-0.1-1-0.1-2-0.1-3.1V8.2H84v7.4h-1.8l-1.6-2.9
			c-0.4-0.8-0.9-1.7-1.3-2.6h0c0.1,1,0.1,2,0.1,3.2v2.2H77.9z"/>
	</g>
</g>
</svg>
