<?xml version="1.0" encoding="utf-8"?>
<!-- Generator: Adobe Illustrator 27.7.0, SVG Export Plug-In . SVG Version: 6.00 Build 0)  -->
<svg version="1.1" id="Layer_1" xmlns="http://www.w3.org/2000/svg" xmlns:xlink="http://www.w3.org/1999/xlink" x="0px" y="0px"
	 viewBox="0 0 512 255" style="enable-background:new 0 0 512 255;" xml:space="preserve">
<style type="text/css">
	.st0{fill:#422006;stroke:#422006;stroke-width:5.8931;stroke-miterlimit:10;}
	.st1{fill:#422006;}
	.st2{fill:#713F12;}
	.st3{font-family:'FONTSPRINGDEMO-CeraProLightRegular';}
	.st4{font-size:58.9307px;}
</style>
<g>
	<g>
		<path class="st0" d="M158.8,23.3c3.5,1.4,5.2,3.8,5.2,7c0,0.3-0.1,1.5-0.4,3.5c-0.3,2-2.7,3.9-7.2,5.7c-0.5,0.1-0.9,0.2-1.4,0.2
			c-0.3,0-0.6,0-1.1-0.1c-0.5-0.1-0.9-0.2-1.2-0.5c-0.4-0.3-0.5-0.5-0.5-0.8v-0.1c0-0.1,0.2-0.2,0.6-0.2h0.2c1,0,1.9-0.5,2.9-1.4
			c0.9-0.9,1.5-2,1.7-3.2c0.1-0.2,0.1-0.4,0.1-0.7c0-0.9-0.5-1.7-1.5-2.3c-1-0.5-2.2-0.7-3.3-0.7c-3.8,0-8.9,2.6-15.2,7.8
			c-6.4,5.2-13.8,12.2-22.3,21c-6.9,7.1-13.7,13.6-20.4,19.7c-6.7,6.1-13,10.3-18.8,12.8c2.8,2.2,5.8,5.1,9,8.9
			c3.9,4.8,8.7,9.4,14.3,13.9c5.6,4.5,12.6,7.2,20.9,8.2c0.6,0.1,1.1,0.1,1.7,0.1c3.1,0,6.5-0.7,10.1-2c3.6-1.3,6.2-3.5,7.9-6.3
			c0.5-0.9,1-1.3,1.5-1.3c0.3,0,0.6,0.2,0.9,0.6c0.5,0.8,0.8,2.3,0.8,4.4c0,0.2,0,0.9,0,2.3c0,1.3-0.6,3.3-1.8,6.1
			c-1.2,2.7-0.5,7.7-3.3,9.7s-9.2,0.7-13.9,1c-10.6-0.1-19.4-3.5-26.4-10c-7-6.5-12.9-13.5-17.7-20.7c-4.2-6.2-8-10.7-11.5-13.5
			c-0.9-0.1-1.8-0.2-2.7-0.5c-5,12.2-10.9,22.3-17.7,30.3c-5.7,6.7-12.3,10.1-19.9,10.1c-1.4,0-2.9-0.1-4.4-0.4
			c-5-1.2-8.4-3.5-10.2-7c-1.4-2.8-2.1-5.7-2.1-8.7c0-0.8,0.1-2.4,0.3-4.7c0.2-2.4,1.2-4.7,2.8-7.2c1.5-2.2,2.9-4,4.1-5.2
			c1.2-1.2,2.3-2.1,3.2-2.7c0.9-0.5,1.7-0.8,2.3-0.8h0.5c0.4,0,0.7,0.1,0.9,0.2c0.2,0.1,0.3,0.3,0.3,0.4c0,0.1,0,0.1-0.1,0.2
			c-3.1,4.3-4.7,8.5-4.8,12.6v0.2c0,3.6,1.8,5.4,5.5,5.4c0.3,0,0.7,0,1.1-0.1c6.9-1.7,13.7-7.9,20.6-18.5
			c6.8-10.6,13.5-22.3,19.9-35.1c6-12,11.7-21.9,16.9-29.9c-7.1,2.4-14.9,3.7-23.2,4.1c-5.2,0.3-9.9,0.9-13.9,1.7
			c-11.3,3-19.3,7.8-24,14.3c-4.3,6-6.5,11.7-6.5,17.1c0,0.5,0.1,2.2,0.2,5.3c0.2,3.1,2.3,4.8,6.3,5.2c0.5,0,0.8,0.2,1,0.5
			c0.1,0.1,0.2,0.3,0.2,0.4c0,0.2-0.1,0.4-0.3,0.7c-0.2,0.3-0.8,0.4-1.8,0.4c-8.7-0.6-13.8-4.9-15.4-13.1c-0.3-1.6-0.5-3.2-0.5-4.8
			c0-6.5,2.9-13.4,8.7-20.8c5.8-7.4,16.3-11.7,31.4-12.8c2.5-0.1,4.8-0.1,7.1-0.1c2.2,0,4.3,0,6.2,0.1c1.6,0.1,3.1,0.1,4.5,0.1
			c4.5,0,8.8-0.3,13-0.8c4.2-0.6,8.9-2.3,13.9-5.3c0.6-0.5,1.2-0.9,1.8-1.3c1.2-0.6,2.2-0.9,3-0.9c0.7,0,1.4,0.2,2.1,0.7
			c0.8,0.5,1.2,1.4,1.2,2.6v0.2c0,1.1-0.5,1.9-1.4,2.5c-4.5,2.5-8.7,7.7-12.5,15.6c-3.8,7.9-7.7,17.1-11.5,27.4
			c-2.2,5.9-4.6,11.8-7,17.6c8.8-4,19.3-13,31.7-27c9.8-10.8,19.8-20.3,30.2-28.5c8.1-6.5,15.8-9.7,23.2-9.7
			C154.8,22.5,156.8,22.8,158.8,23.3z"/>
	</g>
	<path class="st1" d="M126.3,125.6c0-21.4,9-41.7,27-60.9c18-19.2,36.4-29.2,55.1-29.9c5,0.4,7.5,1.9,7.5,4.5c0,1.5-1.6,4.5-4.7,8.7
		c-3.1,4.3-10,10.3-20.6,17.9c-10.6,7.7-21.1,14.1-31.3,19.2c-5.1,8.1-9.2,16-12.3,23.6c8.1-10.1,16.9-18,26.3-23.6
		c8.3-5,15.3-7.5,20.9-7.5c0.7,0,1.4,0,2.1,0.1c5.4,1,8.3,3,8.8,5.9c0.1,0.5,0.2,1,0.2,1.5c0,2.5-1,5.4-3.1,8.8
		c-2.1,3.4-4.6,6.9-7.4,10.4c-2.5,3.2-4.4,5.9-5.7,8.1c-0.6,1.1-0.9,2-0.9,2.7c0,0.7,0.4,1.2,1.1,1.5c0.6,0.2,1.3,0.3,2,0.3
		c2.4,0,5.4-1,9-3.1c3.6-2.1,7.5-5,11.7-8.6c4.2-3.6,7.8-7,10.7-10.1c3-3.1,4.7-5.1,5.2-6c0.6-0.9,1.6-1.5,3-1.6h0.5
		c1.3,0,2.4,0.3,3.2,0.8c0.6,0.4,0.9,0.8,0.9,1.4c0,0.5-0.2,1-0.5,1.6c-6.6,10.6-15.8,21.1-27.7,31.8c-10.1,8.9-20.6,13.4-31.3,13.4
		c-2,0-4.1-0.1-6.1-0.4c-5.5-1.9-8.2-5.7-8.2-11.5c0-2.3,1-6.7,3-13.2c2-6.5,8.3-14,18.9-22.4c-5.7,2.9-11.8,7.2-18.1,13
		c-6.3,5.7-11.8,11.3-16.3,16.6c-4.5,5.4-7,9-7.3,10.8c-0.2,3.1-1.5,5.2-3.8,6.3c-1,0.4-1.9,0.5-2.9,0.5c-1.4,0-3.1-0.6-5.1-1.8
		C128.2,133.1,126.9,130.2,126.3,125.6z M208.4,41.8c-7.4,1-15.1,5.1-23.2,12.3c-8.1,7.2-15.5,15.8-22.3,25.8
		c8.6-5,16.8-10.5,24.6-16.4c7.8-6,13.9-11,18.2-15.2c2.6-2.7,3.9-4.6,3.9-5.6C209.7,42.1,209.3,41.8,208.4,41.8z"/>
	<path class="st1" d="M234.2,136.1c-9.5-0.2-15.2-3.8-17-10.9c-0.6-2.2-0.9-4.5-0.9-6.8c0-5.4,1.8-12,5.5-19.9
		c3.6-7.9,9.9-15.5,18.8-22.9c8.9-7.3,19.2-11,31-11c6.1,0,9.4,2.9,9.8,8.6v1.2c0,5.3-2.9,10.7-8.8,16.3
		c-5.8,5.6-15.5,9.2-28.8,10.7c-2.3,4.2-3.5,7.8-3.8,10.9v0.7c0,2.8,1.3,4.5,3.9,5.2c0.5,0.1,1,0.1,1.6,0.1c4.3,0,9.4-2,15.3-6
		c5.9-4,11.4-8.5,16.5-13.4c5.1-5,8.1-8.2,9.2-9.8c0.8-1.1,1.7-1.6,2.7-1.6c1,0,1.7,0.4,2.3,1.2c0.4,0.4,0.5,0.8,0.5,1.2
		c0,0.4-0.1,0.7-0.4,1.1c-1.7,3.4-5.6,8.6-11.7,15.6c-6.1,7-13.3,13.6-21.5,19.6C250.5,132.3,242.3,135.6,234.2,136.1z M269.3,78.6
		c-3.9,0.7-8,3-12.3,6.8c-4.2,3.8-8,8-11.2,12.8c4.8-0.7,9-2.1,12.8-4.2c3.8-2.1,6.8-4.4,9-6.8c2.3-2.5,3.6-4.5,4.1-6.1v-0.7
		c0-1.1-0.7-1.6-2-1.6H269.3z"/>
	<path class="st1" d="M269.5,129.4c-0.2-1.5-0.4-3-0.4-4.5c0-7.5,2.4-15.1,7.2-22.9c4.8-7.8,11.4-14.5,19.9-20.1
		c3.5-2.2,6.6-3.3,9.3-3.3c0.1,0,0.9,0,2.4,0c1.5,0,2.8,0.6,3.8,1.9c0.5,0.5,0.7,1.1,0.7,1.6c0,0.9-0.5,1.8-1.6,2.7
		c-5.6,5.6-11,13.4-16.1,23.3c8.6-8.3,17.1-15.1,25.4-20.5c8.3-5.4,13.5-8.6,15.6-9.6c0.1,0,0.2,0,0.2-0.1c1.4-0.7,2.8-1.1,4.1-1.1
		c0.5,0,1.3,0.1,2.4,0.3c1.1,0.2,2.1,0.9,2.8,2.1c0.4,0.5,0.5,1,0.5,1.5c0,0.7-0.4,1.5-1.1,2.3c-0.4,0.4-1.3,1.1-2.7,2.3
		c-3.5,3-7.5,6.9-12.3,11.7c-4.7,4.8-7.3,8.8-7.8,11.9c-0.1,1.2-0.8,1.8-2.1,1.8c-0.1,0-0.7,0-1.6-0.1c-1-0.1-2.2-1-3.8-2.7
		c-1.2-1.5-1.8-3.6-1.8-6.4v-1.4c-7,5.9-12.9,11.7-17.7,17.4c-4.8,5.7-7.7,10.3-8.8,13.8v0.3c0,1.8-1.2,3.1-3.6,4
		c-1.2,0.5-2.4,0.7-3.8,0.7c-1.3,0-3-0.3-5.1-1C271.6,134.6,270.2,132.7,269.5,129.4z"/>
	<path class="st1" d="M255.9,233.1c0.4-1.2,0.9-2,1.6-2.5c0.7-0.4,1.4-0.5,2-0.5c0.1,0,0.4,0,0.7,0.1c0.4,0.1,0.5,0.5,0.5,1.2v0.5
		c0,1.6,1.1,3.4,3.3,5.3c2.2,1.9,5.3,2.8,9.2,2.8c7,0,13.5-2.8,19.3-8.5c5.8-5.6,63.4-96.6,68.6-104.8c-7.8,6.2-14.8,9.3-21.1,9.3
		c-10,0-15-3.8-15-11.5c0-2.4,1.3-7.6,3.8-15.8c2.6-8.2,12.9-20.8,30.9-37.8c1.7-1.3,3.5-1.9,5.4-1.9c0.6,0,1.8,0.2,3.5,0.5
		c1.7,0.3,3.4,1.3,5.1,2.9c1.1,1,1.6,2,1.6,3c0,0.5-0.2,1.1-0.5,1.6c-1,1.3-2.9,3.9-5.8,7.9c-2.9,4-5.9,8.4-9,13.1
		c-3.1,4.7-5.5,8.9-7.2,12.4c-0.8,1.8-1.3,3.2-1.3,4.1c0,0.9,0.4,1.4,1.3,1.4c1.9,0,4.8-1.5,8.8-4.4c3.9-2.9,8.1-6.4,12.6-10.5
		c4.5-4.1,8.5-8,12.1-11.7c4.3-5.4,8.9-9.8,13.7-13.2c4.8-3.4,10-5.1,15.7-5.1c2.1,0,3.6,0.4,4.5,1.1c0.8,0.7,1.3,1.5,1.3,2.2
		c0,0.7-0.3,1.2-0.9,1.5c-3.1,1.5-6.5,4.9-10.2,10.2c-3.7,5.4-7.7,11.8-12,19.2c-5.3,9-11.1,18.1-17.4,27.4
		c-6.4,9.2-65.4,101.1-73.1,107.6c-7.7,6.5-16.2,9.7-25.5,9.7c-7.4,0-13-1.1-16.9-3.3c-3.9-2.2-6.5-4.7-8-7.3
		c-1.1-2.1-1.6-3.8-1.6-5.2C255.8,233.8,255.8,233.4,255.9,233.1z"/>
	<path class="st1" d="M428.5,136.1c-11.8,0-18-5.1-18.4-15.3v-1.9c0-9.8,3.4-21.1,10.1-33.8c6.7-12.7,15.9-24.1,27.5-34.1
		c11.6-10,23.8-15.3,36.7-15.8c5.1,0.2,7.7,1.6,7.7,4.2c0,1.3-1.2,3.7-3.5,7.3c-2.3,3.6-8.2,9-17.5,16.2
		c-9.4,7.2-19.1,13.7-29.1,19.3c-4.8,8.7-7.7,16.4-8.8,23.1c-0.2,1.5-0.4,2.8-0.4,4c0,4.4,1.7,7.1,5.2,8.1c0.7,0.1,1.4,0.1,2,0.1
		c3.2,0,6.9-1.3,11.1-4c4.2-2.6,8.3-6.2,12.4-10.6c4.1-4.4,7.4-8.5,9.8-12.3c0.7-1,1.7-1.5,3-1.6h0.5c1,0,1.8,0.2,2.7,0.5
		c0.7,0.4,1.1,0.9,1.1,1.5c0,0.3-0.1,0.5-0.2,0.8c-0.4,0.8-1.9,3.5-4.5,8.1c-2.6,4.5-6.2,9.6-10.8,15.2c-4.6,5.6-10,10.5-16.2,14.7
		C442.7,134,435.9,136.1,428.5,136.1z M484.4,42.2c-6.7,0.9-13.5,4.6-20.4,11.2c-6.9,6.5-13.1,14.2-18.6,23.1
		c7.9-5.1,15.2-10.3,22-15.6c6.8-5.3,11.9-9.7,15.4-13.4c2-2.2,3-3.7,3-4.5c0-0.5-0.4-0.8-1.3-0.8H484.4z"/>
	<path class="st1" d="M469.9,162h-1.1c-10,0-16.7-2.5-20-7.6c-2-3.1-3-6.4-3-10c0-2.4,0.8-5.7,2.4-10.1c1.6-4.4,5.8-7.8,12.6-10.2
		c1.2-0.4,2.2-0.5,3-0.5c0.2,0,0.6,0,1.2,0.1c0.5,0,0.8,0.3,0.9,0.6c0.1,0.4-0.4,0.8-1.5,1.2c-5,2.1-8.2,4.8-9.5,8.1
		c-0.7,1.5-1.1,3-1.1,4.4c0,1.5,0.5,3,1.4,4.4c1.6,2.2,4.1,3.3,7.5,3.3l1.6-0.1c5.3-0.8,8-3.5,8.2-8.1v-1.9c0-4.2-0.7-9.1-2-14.7
		c-1.5-5.9-2.3-11.8-2.3-17.6c0-2.8,0.4-7,1.1-12.7c0.7-5.6,6.9-10.5,18.4-14.6c3-0.7,5.7-1.1,8.2-1.1c3.8,0,6.9,1,9.3,2.9
		c2.3,1.9,3.4,4,3.4,6.4c0,1.5-0.5,3-1.4,4.8c-1,1.3-2.1,2.3-3.3,3.1c-1.3,0.8-2.4,1.3-3.5,1.7c-0.8,0.3-1.5,0.4-2,0.4h-0.2
		c-0.2,0-0.4-0.1-0.4-0.3c0-0.2,0.2-0.4,0.5-0.7c1.5-1.2,2.3-2.4,2.3-3.7c0-0.1,0-0.5-0.1-1.2c-0.1-0.7-0.7-1.4-2.1-2.3
		c-0.8-0.5-1.8-0.8-2.9-0.8c-0.5,0-1,0-1.6,0.1c-4.5,1.4-6.8,4.6-6.8,9.8c0,0.1,0,1.6,0.1,4.4c0.1,2.9,1,8,3,15.5
		c2.3,7.9,3.4,15.5,3.4,22.6c0,2.7-0.4,7.1-1.1,13.2C492.1,156.8,484.4,160.5,469.9,162z"/>
</g>
<text transform="matrix(1 0 0 1 105.5923 190.6924)" class="st2 st3 st4">cookies</text>
</svg>
