<?xml version="1.0" encoding="utf-8"?>
<!-- Generator: Adobe Illustrator 27.7.0, SVG Export Plug-In . SVG Version: 6.00 Build 0)  -->
<svg version="1.1" id="Layer_1" xmlns="http://www.w3.org/2000/svg" xmlns:xlink="http://www.w3.org/1999/xlink" x="0px" y="0px"
	 viewBox="0 0 1366 673" style="enable-background:new 0 0 1366 673;" xml:space="preserve">
<style type="text/css">
	.st0{fill:#22C55E;}
	.st1{fill:#451A03;}
	.st2{fill:#DC2626;}
</style>
<g>
	<path class="st0" d="M1143.1,265.7c1.7-4.4,4.5-7.8-2.1-11.8c-3.8-2.2-34.5-3-59.4-11.4c-24.9-8.4-49.4-21.4-54-37.4
		c-5.1-17.7,2.8-33.5,5.6-34.4c1.7,7,37-26.9,40-25.9c3,1,5.4,51.6,22.6,62.5c0,0-0.4-23.2,15.1-47.6c11.3-17.7,48.4-31,49.9-29.2
		c1.5,1.8,8.1,40.6,5.5,58c10.9-8,29.8-4.4,31.5-0.3c-25.1,31.6-14,47.8-16.1,77.4c9.6-24,48.8-59.9,56.9-86.6
		c7.2,0.4,23.4,7.8,26.1,18.6c-15.4,30.7-67.7,58.6-72.6,77.3c13.1-2.9,23.3-12.7,56.6-18.7c44.2-7.9,74.4,15,101.4,18.3
		c-8.4,24.8-53.5,34.3-52.3,42.7c8.2,2.3,45.2,75,48.6,86c-34.5-2.9-73.6,26.6-113.7-59.2c-6.2-13.3-10.7-47.5-30-49.9
		c-30.2-3.7-34.8,17.5-52.9,6.2C1139.9,294.1,1137.5,280.3,1143.1,265.7"/>
	<path class="st1" d="M1236.4,476.4c-18.9-23.7-62.9,4.3-83-21.1c-20.2-25.4-6.9-55.5-37.8-91.9c-18.4-21.7-64-9.6-88-20.9
		c-28.6-13.4-15.6-81.1-71-59.5c-8.5,9.2-14.6,18.2-16.4,25.1c-22.4,37.6-37.4,101.6-38.6,106.8c62.7-2,76.2,11.5,94.6,41.4
		c-58.5-43.1-66.9-24-99.9-19.2c-5.6,39.4-4.2,72.2,3.6,109.6c25.8-3.1,38.8,0.6,56.7,24.2c-34.7-17.7-33-15.6-53.7-11.5
		c6.6,23.6,17,42.6,31.4,54.2c27.5,22.2,82.7,17,146.8-8c-9.9-39.8-27.1-64.2-75.5-76.6c27.8-3.2,61.9-7.6,100.2,66
		c42.3-16.2,91.8-42.4,127.8-79C1237.5,500.2,1244.5,486.6,1236.4,476.4"/>
	<path class="st2" d="M1282.4,424.1c-75.4-15.8-48.4-104.4-81.3-115.2c-16.4-5.4-38.9,27.9-64.4,11.9c-13.3-8.3-12.3-33.3-8.4-52.5
		c0.7-3.3-2-5.7-4.8-5.7c-18-0.4-76.4,2-101.1-25.5c-17.8,5.3-53.9,13.7-59.1,38.8c-0.5,2.4-0.1,4.7,2.3,4.1
		c44.9-10.9,35,49.8,61.9,62.5c24,11.3,69.5-0.8,87.9,20.9c31,36.4,17.7,66.5,37.8,91.9c20.2,25.4,64.2-2.6,83,21.1
		c8.1,10.1,1.1,23.8-2.8,39.5C1258.7,490.5,1277.3,459.9,1282.4,424.1"/>
</g>
<g>
	<path class="st2" d="M424,91.9c1.4-0.6,3.2-0.4,5.6,0.4c2.4,0.9,4.7,2.2,7.1,4c2.4,1.8,4.5,3.9,6.5,6.5c2,2.6,3.4,5.1,4.4,7.7
		c-2.8,1.4-7,4.5-12.7,9.3c-5.7,4.8-12.3,11.1-19.8,18.9c-7.5,7.8-15.6,17-24.5,27.6s-17.9,22.4-27.1,35.4c8.6-8.8,19.3-18.2,32-28
		c12.7-9.8,25.8-19.6,39.5-29.2c13.7-9.6,27.2-18.7,40.5-27.3c13.4-8.6,25-15.9,34.8-22c2.6-1.2,5.7-1.6,9.4-1.3
		c3.7,0.3,7.6,1.2,11.5,2.8c3.9,1.6,7.8,3.7,11.6,6.3c3.8,2.7,7,5.7,9.6,9c-6.9,2.2-15.1,5.5-24.8,9.9c-9.6,4.4-20,9.6-31.1,15.6
		c-11.1,6-22.5,12.5-34.2,19.6c-11.7,7.1-23.1,14.4-34.3,22.1s-21.7,15.4-31.5,23.3c-9.8,7.9-18.4,15.4-25.6,22.7
		c-0.8,7.1-0.9,15-0.3,23.9c0.6,8.8,1.8,17.5,3.5,25.9c1.8,8.5,4,16.3,6.8,23.6c2.8,7.3,5.9,13,9.4,17.1c3.3,2.2,8.1,1.6,14.2-1.8
		c6.1-3.3,12.5-8,19.2-13.9c6.7-5.9,13.2-12.2,19.5-19c6.3-6.8,11.4-12.4,15.3-17c5.3-6.5,10-11.2,14.2-14c4.1-2.8,7.1-4,8.8-3.4
		c1.8,0.6,2,2.8,0.7,6.6c-1.3,3.8-4.7,9.2-10.2,16.1c-4.3,5.1-9.1,10.8-14.4,17c-5.3,6.2-11,12.3-17,18.4
		c-6,6.1-12.1,11.8-18.4,17.2c-6.3,5.4-12.4,10.1-18.4,14c-6,3.9-11.7,6.8-17.1,8.7c-5.4,1.9-10.3,2.1-14.6,0.7
		c-4.7-0.8-8.7-3.9-11.9-9.3c-3.2-5.4-5.9-11.9-8.1-19.6c-2.2-7.7-3.8-16-5-25.1c-1.2-9-2.1-17.6-2.7-25.6c-0.6-8.1-1-15.1-1.3-21.1
		c-0.3-6-0.4-10-0.4-11.9c-6.1,9.8-11.3,17.9-15.5,24.3c-4.2,6.4-74.9,99.1-78.5,104.7c-3.5,5.6-6.8,11.5-9.9,17.7
		c-3,6.2-6.4,14.1-10.2,23.7c-0.8,2-2.7,3.7-5.6,5.3c-2.9,1.6-5.9,2.4-9,2.5c-3,0.1-5.5-0.7-7.4-2.4c-1.9-1.7-2.2-4.9-1-9.6
		c2.4-10,8.2-17.6,15.3-31.8C228,353.1,302,246.8,311.5,231c9.5-15.7,19.9-31.4,31-47.2c11.1-15.7,21.9-30.1,32.4-43
		c10.5-13,20.1-23.9,28.7-32.7C412.3,99.3,419.1,93.9,424,91.9z"/>
	<path class="st2" d="M475,267c-5.7,10.8-9,19.9-10,27.3c-1,7.4-0.3,13,2.1,17c2.4,3.9,6.2,6.1,11.5,6.6c5.3,0.5,11.4-0.8,18.3-3.8
		c6.9-3,14.3-7.8,22.4-14.2c8.1-6.4,16-14.6,23.9-24.6c5.9-7.7,11.1-16.1,15.6-25.4c0.8-2,2-3.3,3.5-4.1c1.6-0.8,3-1,4.4-0.6
		c1.4,0.4,2.4,1.3,3.1,2.7c0.7,1.4,0.4,3.2-0.7,5.6c-5.5,12-12.4,23.1-20.6,33.3c-8.3,10.2-17.2,18.9-26.8,26.1
		c-9.6,7.2-19.5,12.5-29.6,16.1c-10.1,3.5-19.9,4.7-29.3,3.5c-4.5-0.6-9-1.7-13.6-3.2c-4.5-1.6-8.5-4.3-11.8-8.3
		c-3.7-4.1-5-10.4-3.7-18.7c1.3-8.4,4.3-17.5,9.1-27.4c4.8-9.9,11-20,18.4-30.4c7.5-10.3,15.4-19.6,23.9-27.9
		c8.4-8.3,17-14.8,25.8-19.6c8.7-4.8,16.8-6.8,24-6c4.9,0.6,8.6,2.5,11.1,5.6c2.5,3.1,3.9,7,4.4,11.5c0.5,4.5,0,9.3-1.5,14.4
		c-1.5,5.1-3.6,9.9-6.3,14.4c-3.9,6.3-7.7,11.8-11.4,16.7c-3.6,4.8-7.6,9.1-11.9,13c-4.3,3.8-9.1,7.3-14.4,10.3
		c-5.3,3-11.4,6-18.3,9c-2.6,1-4.5,1.2-5.9,0.7c-1.4-0.5-2.1-1.4-2.1-2.8c0-1.4,0.7-3,2.1-4.9c1.4-1.9,3.5-3.7,6.5-5.5
		c4.9-2.9,9.7-6.4,14.3-10.5c4.6-4,8.8-8.3,12.7-12.8c3.8-4.5,7.2-9,10.2-13.6c2.9-4.5,5.2-8.7,6.6-12.5c1.5-3.8,2.2-7.2,2.2-10
		c0-2.8-1-4.8-2.9-5.7c-1.8-0.8-4.9,0.4-9.4,3.5c-4.5,3.1-9.5,7.6-14.9,13.3c-5.4,5.7-10.9,12.2-16.5,19.6
		C483.7,252.1,478.9,259.6,475,267z"/>
	<path class="st2" d="M552.2,230.2c0.4-4.3,2.2-9.4,5.5-15.2c3.2-5.8,7.3-11.1,12.1-15.8c4.8-4.7,10.2-8.3,16.2-10.8
		c6-2.5,11.9-2.7,17.8-0.7c5.3,2,7.8,5.3,7.4,10c-0.4,4.7-2.6,9.5-6.5,14.4c-2.8,3.7-6.2,7.1-10.5,10c-4.2,2.9-8.1,5.2-11.6,6.8
		c-0.4,4.5,0.5,7.2,2.8,8.1c2.3,0.9,5.4,0.5,9.4-1.2c4-1.7,8.6-4.4,13.9-8.1c5.2-3.7,10.5-8,15.8-12.7c2-1.8,4.9-2.5,8.8-2.1
		c3.9,0.4,7.6,1.4,11.1,2.9c3.4,1.6,6,3.5,7.8,5.7c1.8,2.3,1.6,4.4-0.6,6.3c-3.7,1-7.8,3.7-12.2,8.3c-4.4,4.5-8.7,9.9-13,16.1
		c-4.2,6.2-8.2,12.8-11.9,19.8c-3.7,7-6.6,13.6-8.7,19.8c-2.1,6.2-3.2,11.5-3.4,15.9c-0.2,4.4,1.1,7.1,3.8,8.1
		c3.1,1.2,6.9,1,11.4-0.6c4.4-1.6,9-4.1,13.9-7.5c4.8-3.4,9.7-7.6,14.6-12.4c4.9-4.8,9.6-9.9,14-15.2c4.4-5.3,8.4-10.6,11.9-15.9
		c3.5-5.3,6.3-10.1,8.3-14.4c0.8-2.2,2.1-3.6,4-4.4c1.9-0.8,3.6-1,5.2-0.6c1.6,0.4,2.7,1.4,3.5,2.9c0.8,1.6,0.5,3.5-0.9,5.9l-5,9.7
		c-4.5,7.7-10,15.7-16.4,24.2c-6.4,8.5-13.5,16.1-21.2,22.8c-7.8,6.8-16.1,12.2-24.9,16.4c-8.8,4.1-17.8,5.7-26.8,4.7
		c-7.5-0.8-12.8-3.1-16.1-7.1c-3.2-3.9-4.9-9.3-4.9-16.2c0-3.9,0.7-8.4,2.1-13.6c1.4-5.1,3.3-10.5,5.9-16.1
		c2.6-5.6,5.5-11.2,8.7-16.7c3.2-5.5,6.7-10.6,10.5-15.3c-13,4.7-23,7.4-30.2,8c-7.2,0.6-12.4-0.1-15.8-2.2
		c-3.3-2.1-5.3-5.1-5.7-9.1C551.6,239.3,551.6,234.9,552.2,230.2z"/>
	<path class="st2" d="M674.3,230.2c0.4-4.3,2.2-9.4,5.5-15.2c3.2-5.8,7.3-11.1,12.1-15.8c4.8-4.7,10.2-8.3,16.2-10.8
		c6-2.5,11.9-2.7,17.8-0.7c5.3,2,7.8,5.3,7.4,10c-0.4,4.7-2.6,9.5-6.5,14.4c-2.8,3.7-6.2,7.1-10.5,10c-4.2,2.9-8.1,5.2-11.6,6.8
		c-0.4,4.5,0.5,7.2,2.8,8.1c2.3,0.9,5.4,0.5,9.4-1.2c4-1.7,8.6-4.4,13.9-8.1c5.2-3.7,10.5-8,15.8-12.7c2-1.8,4.9-2.5,8.8-2.1
		c3.9,0.4,7.6,1.4,11.1,2.9c3.4,1.6,6,3.5,7.8,5.7c1.8,2.3,1.6,4.4-0.6,6.3c-3.7,1-7.8,3.7-12.2,8.3c-4.4,4.5-8.7,9.9-13,16.1
		c-4.2,6.2-8.2,12.8-11.9,19.8c-3.7,7-6.6,13.6-8.7,19.8c-2.1,6.2-3.2,11.5-3.4,15.9c-0.2,4.4,1.1,7.1,3.8,8.1
		c3.1,1.2,6.9,1,11.4-0.6c4.4-1.6,9-4.1,13.9-7.5c4.8-3.4,9.7-7.6,14.6-12.4c4.9-4.8,9.6-9.9,14-15.2c4.4-5.3,8.4-10.6,11.9-15.9
		c3.5-5.3,6.3-10.1,8.3-14.4c0.8-2.2,2.1-3.6,4-4.4c1.9-0.8,3.6-1,5.2-0.6c1.6,0.4,2.8,1.4,3.5,2.9c0.8,1.6,0.5,3.5-0.9,5.9l-5,9.7
		c-4.5,7.7-10,15.7-16.4,24.2c-6.4,8.5-13.5,16.1-21.2,22.8c-7.8,6.8-16.1,12.2-24.9,16.4c-8.8,4.1-17.8,5.7-26.8,4.7
		c-7.5-0.8-12.8-3.1-16.1-7.1c-3.2-3.9-4.9-9.3-4.9-16.2c0-3.9,0.7-8.4,2.1-13.6c1.4-5.1,3.3-10.5,5.9-16.1
		c2.6-5.6,5.5-11.2,8.7-16.7c3.2-5.5,6.7-10.6,10.5-15.3c-13,4.7-23,7.4-30.2,8c-7.2,0.6-12.4-0.1-15.8-2.2
		c-3.3-2.1-5.3-5.1-5.7-9.1C673.6,239.3,673.7,234.9,674.3,230.2z"/>
	<path class="st2" d="M828.2,200.4c1.4-1.4,3.7-2.3,6.9-2.7c3.2-0.4,6.3-0.3,9.3,0.3c2.9,0.6,5.4,1.6,7.4,3.1c2,1.5,2.6,3.2,1.8,5.2
		c-3.9,5.7-8.5,12.7-13.6,20.9c-5.1,8.3-10,16.9-14.7,25.9c-4.7,9-8.7,17.9-11.9,26.7c-3.2,8.7-4.9,16.4-4.9,22.8
		c0.4,8.3,2.7,12.3,6.9,12.2c4.2-0.1,10.3-3.8,18.1-11.1c3.7-3.5,7.5-7.6,11.4-12.1c3.8-4.5,7.5-9.2,10.9-14.2
		c3.4-4.9,6.6-9.7,9.4-14.4c2.8-4.7,5.2-9,6.9-13c0.8-2.2,2.1-3.6,4-4.4c1.9-0.8,3.6-1,5.2-0.6c1.6,0.4,2.8,1.3,3.5,2.8
		c0.8,1.5,0.5,3.4-0.9,5.7c-3.1,6.7-7.4,14.4-12.8,23.1c-5.4,8.7-11.6,17-18.6,24.8c-7,7.8-14.5,14.4-22.6,19.9
		c-8.1,5.5-16.4,8.5-25.1,8.8c-8.3,0.4-14.2-1.4-17.7-5.5c-3.5-4-5.5-9.4-5.9-16.1c-0.2-8.4,1.3-17.8,4.4-28.2
		c3.1-10.3,7.1-20.5,11.8-30.5c4.7-10,9.8-19.4,15.3-28.2C818.3,213.3,823.4,206.1,828.2,200.4z M849.7,181.8
		c-2.4-2-3.6-4.6-3.8-7.8c-0.2-3.2,0.4-6.6,1.8-10.2c1.4-3.5,3.5-7,6.3-10.3c2.8-3.3,6.1-6,9.9-8c3.9-2.2,7.8-3.6,11.6-4.3
		c3.8-0.7,7-0.6,9.6,0.3c2.6,0.9,4.1,2.6,4.6,5c0.5,2.5-0.5,5.7-3.1,9.6c-1,1.4-2.6,4-4.9,8c-2.3,3.9-5,7.7-8.3,11.2
		c-3.2,3.5-6.9,6.2-11.1,8.1C858.2,185.3,854,184.8,849.7,181.8z"/>
	<path class="st2" d="M931.6,199.5c-4.3,4.1-7.9,7.9-10.6,11.4c-2.8,3.4-5.8,7.3-9.1,11.6c-3.9,5.1-5.9,9.8-5.9,14
		c0,4.2,1,8.5,3.1,12.7c2.1,4.2,4.7,8.6,7.8,13.1c3.1,4.5,5.8,9.7,8,15.6c4.5-1.2,8.9-2.4,13.1-3.5c4.2-1.2,8.3-2.8,12.1-5.2
		c75.9-46.1,42-0.8,45.2-4.4c3.2-3.6,6.1-8.4,8.7-14.3c0.6-2.8,1.7-4.5,3.4-5.3c1.7-0.8,3.2-0.9,4.7-0.3c1.5,0.6,2.6,1.8,3.4,3.7
		c0.8,1.9,0.7,4.1-0.3,6.6c-2.4,6.7-5.4,12.3-9,16.8c-3.6,4.5-7.8,8.3-12.4,11.4c-4.6,3-44.2,1.2-49.5,3.2c-5.3,2.1-10.7,4-16.2,5.7
		c2,3.9,2.8,7.7,2.4,11.3c-0.4,3.6-1.6,7-3.7,10.2c-2.1,3.1-4.7,6-8,8.5c-3.2,2.6-6.7,4.6-10.5,6.2c-7.9,3.3-16.4,5.2-25.6,5.5
		c-9.2,0.3-17.5-0.4-24.8-2.2c-5.1-1-8.3-2.7-9.6-5.3c-1.3-2.6-1.3-5.5-0.1-8.8c1.8-5.5,4.3-10.1,7.5-13.7c3.2-3.6,7-6.7,11.4-9.1
		c4.3-2.5,8.9-4.4,13.9-5.9c4.9-1.5,10-2.8,15.3-4c-3.5-5.3-6.9-10-10-14c-3.1-4-5.7-7.8-7.7-11.4c-2-3.5-3.1-7.1-3.4-10.8
		c-0.3-3.6,0.7-7.8,3.1-12.5c1.8-3.5,4.1-7.5,6.9-11.9c2.8-4.4,6-9,9.4-13.7c3.4-4.7,7.1-9.5,10.9-14.3c3.8-4.8,7.7-9.5,11.6-14
		c1.4-1.6,3.2-1.9,5.6-1c2.4,0.9,4.5,2.4,6.3,4.6c1.9,2.2,3.2,4.5,4,7.1C933.9,195.6,933.4,197.7,931.6,199.5z M865.9,316
		c0.2,1.2,1.5,2.2,4,3.1c2.5,0.9,5.4,1.5,8.8,1.8c3.4,0.3,7,0.2,10.6-0.1c3.6-0.4,6.8-1.3,9.4-2.7c2.7-1.4,4.4-3.3,5.3-5.7
		c0.9-2.5,0.2-5.6-1.9-9.6c-1.6,0.4-4.4,1.2-8.4,2.4c-4,1.2-8.1,2.5-12.2,3.8c-4.1,1.4-7.8,2.7-10.9,4
		C867.5,314.1,865.9,315.2,865.9,316z"/>
</g>
<g>
	<path class="st1" d="M54.1,485.9c-0.2,0.2-1.5,0.6-3.8,1.3c-2.4,0.7-5.2,1.1-8.6,1.3c-3.3,0.2-7,0.1-10.9-0.3
		c-3.9-0.4-7.5-1.6-10.6-3.5c-3.1-2-5.6-4.8-7.4-8.6c-1.8-3.7-2.3-8.8-1.5-15.1c1.6-9.8,5.2-19,10.9-27.6
		c5.7-8.6,12.9-16.5,21.5-23.8c8.7-7.3,18.5-13.9,29.7-19.8c11.1-5.9,22.9-11,35.4-15.3c12.5-4.3,25.3-7.8,38.5-10.5
		c13.2-2.7,26.3-4.4,39.3-5.2c14.2-0.8,27.8-0.7,41,0.3c13.2,1,24.3,4,33.4,9c9,5,15.1,12.4,18.2,22.1c3,9.7,1.6,22.9-4.3,39.4
		c-3.5,10.4-9,19.7-16.2,27.9c-7.3,8.2-15.1,15.1-23.5,20.8c-8.4,5.7-16.8,10.1-25.4,13.3c-8.6,3.1-16,4.8-22.3,5
		c5.5,2.1,10.5,4.8,14.9,8.1c4.4,3.3,7.9,7.1,10.5,11.6c2.6,4.4,4,9.5,4.3,15.2c0.3,5.7-1,11.9-4,18.6c-2.8,5.3-6.9,11.4-12.4,18.2
		c-5.5,6.8-12,13.1-19.5,19c-7.5,5.9-15.7,10.8-24.6,14.6c-9,3.8-18.3,5.6-27.9,5.2c-12-0.4-21.8-2.6-29.5-6.5
		c-7.7-3.9-13.5-9.1-17.6-15.5c-4-6.4-6.4-13.7-7.2-21.8c-0.8-8.2-0.2-16.8,1.6-26c1.9-9.1,4.8-18.3,8.7-27.4
		c3.9-9.1,8.7-18,14.2-26.7c2.8-4.3,6-9.2,9.7-14.6c3.7-5.4,7.7-11,11.8-16.7c4.1-5.7,8.2-11.3,12.1-16.7
		c3.9-5.4,7.6-10.4,10.9-14.9c3.3-4.5,6.2-8.4,8.6-11.7c2.4-3.2,3.8-5.4,4.4-6.3c1.4-1.2,3.4-2.1,6.2-2.8c2.8-0.7,5.8-1.2,9-1.6
		c3.2-0.4,6.6-0.6,10-0.6c3.4,0,6.6,0.1,9.6,0.3c-15,18.9-28.2,37.4-39.7,55.6c-11.5,18.2-22.9,36.7-34.1,55.6
		c-8.1,13-13.4,25-15.9,36.2c-2.6,11.1-2.9,20.3-0.9,27.6c2,7.3,5.9,12.4,11.8,15.2c5.9,2.8,13.3,2.5,22.1-1
		c9.6-3.7,17.9-8.3,24.6-13.7c6.8-5.4,12.1-11.1,15.9-17c3.8-5.9,6.1-11.8,6.6-17.7c0.6-5.9-0.5-11.3-3.2-16.1
		c-2.8-4.8-7.3-8.8-13.7-11.8c-6.4-3-14.6-4.8-24.6-5.2c1.4-2.5,2.8-5.2,4.4-8.1c1.6-2.9,3.5-6,5.9-9.3c7.7-0.2,16.1-2,25.2-5.3
		c9.1-3.3,18-7.8,26.4-13.4c8.5-5.6,16.2-12,23.2-19.3c7-7.3,12.2-15.1,15.8-23.3c4.3-9.6,5.5-18,3.5-24.9c-2-7-6.3-12.6-13-16.8
		c-6.7-4.2-15.3-7-25.7-8.4c-10.4-1.4-21.9-1.2-34.5,0.6c-13.6,2-27.2,5.2-40.9,9.6c-13.7,4.4-26.3,9.8-37.8,16.1
		c-11.5,6.3-21.4,13.2-29.8,20.8c-8.4,7.6-14.2,15.5-17.6,23.8c-3.1,7.5-4.4,13.6-3.8,18.4c0.6,4.8,1.8,8.7,3.7,11.5
		c1.9,2.9,3.8,4.9,5.9,6.2C53.3,484.6,54.3,485.5,54.1,485.9z"/>
	<path class="st1" d="M271,524.8c-5.7,10.8-9.1,19.9-10,27.3c-1,7.4-0.3,13,2.1,17c2.4,3.9,6.2,6.2,11.5,6.6
		c5.3,0.5,11.4-0.8,18.3-3.8c6.9-3,14.4-7.8,22.4-14.2c8.1-6.4,16-14.6,23.9-24.6c5.9-7.7,11.1-16.1,15.6-25.4c0.8-2,2-3.3,3.5-4.1
		c1.6-0.8,3-1,4.4-0.6c1.4,0.4,2.4,1.3,3.1,2.7c0.7,1.4,0.4,3.2-0.7,5.6c-5.5,12-12.4,23.1-20.7,33.4c-8.3,10.2-17.2,18.9-26.9,26.1
		c-9.6,7.2-19.5,12.5-29.7,16.1c-10.1,3.5-19.9,4.7-29.4,3.5c-4.5-0.6-9.1-1.7-13.6-3.2c-4.5-1.6-8.5-4.3-11.8-8.3
		c-3.7-4.1-5-10.4-3.7-18.7c1.3-8.4,4.3-17.5,9.1-27.4c4.8-9.9,11-20.1,18.4-30.4c7.5-10.3,15.4-19.6,23.9-27.9
		c8.5-8.3,17.1-14.8,25.8-19.6c8.8-4.8,16.8-6.8,24.1-6.1c4.9,0.6,8.6,2.5,11.1,5.6c2.5,3.2,3.9,7,4.4,11.5c0.5,4.5,0,9.3-1.5,14.5
		c-1.5,5.1-3.6,9.9-6.3,14.5c-3.9,6.3-7.7,11.9-11.4,16.7c-3.6,4.8-7.6,9.1-12,13c-4.3,3.8-9.1,7.3-14.5,10.3
		c-5.3,3.1-11.4,6.1-18.3,9c-2.6,1-4.5,1.2-5.9,0.7c-1.4-0.5-2.1-1.4-2.1-2.8c0-1.4,0.7-3,2.1-4.9c1.4-1.9,3.5-3.7,6.5-5.5
		c4.9-3,9.7-6.4,14.3-10.5c4.6-4,8.9-8.3,12.7-12.8c3.8-4.5,7.2-9,10.2-13.6c3-4.5,5.2-8.7,6.6-12.5c1.5-3.8,2.2-7.2,2.2-10
		c0-2.8-1-4.8-3-5.8c-1.8-0.8-4.9,0.4-9.4,3.5c-4.5,3.2-9.5,7.6-14.9,13.3c-5.4,5.7-10.9,12.2-16.5,19.6
		C279.7,509.9,275,517.3,271,524.8z"/>
	<path class="st1" d="M348.3,487.9c0.4-4.3,2.2-9.4,5.5-15.2c3.2-5.8,7.3-11.1,12.1-15.8c4.8-4.7,10.2-8.3,16.2-10.8
		c6-2.5,12-2.7,17.9-0.7c5.3,2,7.8,5.3,7.4,10c-0.4,4.7-2.6,9.5-6.5,14.5c-2.8,3.7-6.2,7.1-10.5,10c-4.2,3-8.1,5.2-11.7,6.8
		c-0.4,4.5,0.5,7.2,2.8,8.1c2.3,0.9,5.4,0.5,9.4-1.2c4-1.7,8.7-4.4,13.9-8.1c5.2-3.7,10.5-8,15.8-12.7c2-1.8,4.9-2.5,8.9-2.1
		c3.9,0.4,7.6,1.4,11.1,3c3.4,1.6,6.1,3.5,7.8,5.8c1.8,2.3,1.6,4.4-0.6,6.3c-3.7,1-7.8,3.7-12.2,8.3c-4.4,4.5-8.8,9.9-13,16.1
		c-4.2,6.2-8.2,12.8-12,19.8c-3.7,7-6.6,13.6-8.7,19.8c-2.1,6.2-3.2,11.5-3.4,15.9c-0.2,4.4,1.1,7.1,3.8,8.1c3.1,1.2,6.9,1,11.4-0.6
		c4.4-1.6,9-4.1,13.9-7.5c4.8-3.4,9.7-7.6,14.6-12.4c4.9-4.8,9.6-9.9,14-15.2c4.4-5.3,8.4-10.6,12-15.9c3.5-5.3,6.3-10.1,8.3-14.5
		c0.8-2.2,2.1-3.6,4-4.4c1.9-0.8,3.6-1,5.2-0.6c1.6,0.4,2.8,1.4,3.5,3c0.8,1.6,0.5,3.5-0.9,5.9l-5,9.7c-4.5,7.7-10,15.7-16.4,24.2
		c-6.4,8.5-13.5,16.1-21.3,22.9c-7.8,6.8-16.1,12.2-24.9,16.4c-8.9,4.1-17.8,5.7-26.9,4.7c-7.5-0.8-12.8-3.1-16.1-7.1
		c-3.2-3.9-4.9-9.3-4.9-16.2c0-3.9,0.7-8.5,2.1-13.6c1.4-5.1,3.3-10.5,5.9-16.1c2.6-5.6,5.5-11.2,8.7-16.7
		c3.2-5.5,6.7-10.6,10.5-15.3c-13,4.7-23.1,7.4-30.3,8c-7.2,0.6-12.4-0.1-15.8-2.2c-3.3-2.1-5.3-5.1-5.8-9.1
		C347.7,497,347.8,492.6,348.3,487.9z"/>
	<path class="st1" d="M470.5,487.9c0.4-4.3,2.2-9.4,5.5-15.2c3.2-5.8,7.3-11.1,12.1-15.8c4.8-4.7,10.2-8.3,16.2-10.8
		c6-2.5,12-2.7,17.9-0.7c5.3,2,7.8,5.3,7.4,10c-0.4,4.7-2.6,9.5-6.5,14.5c-2.8,3.7-6.2,7.1-10.5,10c-4.2,3-8.1,5.2-11.7,6.8
		c-0.4,4.5,0.5,7.2,2.8,8.1c2.3,0.9,5.4,0.5,9.4-1.2c4-1.7,8.7-4.4,13.9-8.1c5.2-3.7,10.5-8,15.8-12.7c2-1.8,4.9-2.5,8.9-2.1
		c3.9,0.4,7.6,1.4,11.1,3c3.4,1.6,6.1,3.5,7.8,5.8c1.8,2.3,1.6,4.4-0.6,6.3c-3.7,1-7.8,3.7-12.2,8.3c-4.4,4.5-8.8,9.9-13,16.1
		c-4.2,6.2-8.2,12.8-12,19.8c-3.7,7-6.6,13.6-8.7,19.8c-2.1,6.2-3.2,11.5-3.4,15.9c-0.2,4.4,1.1,7.1,3.8,8.1c3.1,1.2,6.9,1,11.4-0.6
		c4.4-1.6,9-4.1,13.9-7.5c4.8-3.4,9.7-7.6,14.6-12.4c4.9-4.8,9.6-9.9,14-15.2c4.4-5.3,8.4-10.6,12-15.9c3.5-5.3,6.3-10.1,8.3-14.5
		c0.8-2.2,2.1-3.6,4-4.4c1.9-0.8,3.6-1,5.2-0.6c1.6,0.4,2.8,1.4,3.5,3c0.8,1.6,0.5,3.5-0.9,5.9l-5,9.7c-4.5,7.7-10,15.7-16.4,24.2
		c-6.4,8.5-13.5,16.1-21.3,22.9c-7.8,6.8-16.1,12.2-24.9,16.4c-8.9,4.1-17.8,5.7-26.9,4.7c-7.5-0.8-12.8-3.1-16.1-7.1
		c-3.2-3.9-4.9-9.3-4.9-16.2c0-3.9,0.7-8.5,2.1-13.6c1.4-5.1,3.3-10.5,5.9-16.1c2.6-5.6,5.5-11.2,8.7-16.7
		c3.2-5.5,6.7-10.6,10.5-15.3c-13,4.7-23.1,7.4-30.3,8c-7.2,0.6-12.4-0.1-15.8-2.2c-3.3-2.1-5.3-5.1-5.8-9.1
		C469.9,497,469.9,492.6,470.5,487.9z"/>
	<path class="st1" d="M624.6,458.1c1.4-1.4,3.7-2.3,6.9-2.7c3.2-0.4,6.3-0.3,9.3,0.3c3,0.6,5.4,1.6,7.4,3.1c2,1.5,2.6,3.2,1.8,5.2
		c-3.9,5.7-8.5,12.7-13.6,21c-5.1,8.3-10,16.9-14.8,26c-4.7,9.1-8.7,18-12,26.7c-3.2,8.8-4.9,16.4-4.9,22.9
		c0.4,8.3,2.7,12.3,6.9,12.2c4.2-0.1,10.3-3.8,18.2-11.1c3.7-3.5,7.5-7.6,11.4-12.1c3.8-4.5,7.5-9.2,10.9-14.2
		c3.4-4.9,6.6-9.7,9.4-14.5c2.8-4.7,5.2-9,6.9-13c0.8-2.2,2.1-3.6,4-4.4c1.9-0.8,3.6-1,5.2-0.6c1.6,0.4,2.8,1.3,3.5,2.8
		c0.8,1.5,0.5,3.4-0.9,5.8c-3.1,6.7-7.4,14.4-12.8,23.2c-5.4,8.8-11.6,17-18.6,24.8c-7,7.8-14.5,14.4-22.6,19.9
		c-8.1,5.5-16.4,8.5-25.1,8.9c-8.3,0.4-14.2-1.4-17.7-5.5c-3.5-4-5.5-9.4-5.9-16.1c-0.2-8.5,1.3-17.9,4.4-28.2
		c3.1-10.3,7.1-20.5,11.8-30.5c4.7-10,9.8-19.4,15.3-28.2C614.7,471.1,619.9,463.8,624.6,458.1z M646.1,439.5
		c-2.4-2-3.6-4.6-3.8-7.8c-0.2-3.2,0.4-6.6,1.8-10.2c1.4-3.5,3.5-7,6.3-10.3c2.9-3.3,6.1-6,9.9-8c3.9-2.2,7.8-3.6,11.7-4.3
		c3.8-0.7,7-0.6,9.6,0.3c2.6,0.9,4.1,2.6,4.6,5c0.5,2.5-0.5,5.7-3.1,9.6c-1,1.4-2.6,4-4.9,8c-2.3,3.9-5,7.7-8.3,11.2
		c-3.2,3.5-6.9,6.2-11.1,8.1C654.7,443,650.5,442.5,646.1,439.5z"/>
	<path class="st1" d="M672.4,524.8c-5.7,10.8-9.1,19.9-10,27.3c-1,7.4-0.3,13,2.1,17c2.4,3.9,6.2,6.2,11.5,6.6
		c5.3,0.5,11.4-0.8,18.3-3.8c6.9-3,14.4-7.8,22.4-14.2c8.1-6.4,16-14.6,23.9-24.6c5.9-7.7,11.1-16.1,15.6-25.4c0.8-2,2-3.3,3.5-4.1
		c1.6-0.8,3-1,4.4-0.6c1.4,0.4,2.4,1.3,3.1,2.7c0.7,1.4,0.4,3.2-0.7,5.6c-5.5,12-12.4,23.1-20.7,33.4c-8.3,10.2-17.2,18.9-26.9,26.1
		c-9.6,7.2-19.5,12.5-29.7,16.1c-10.1,3.5-19.9,4.7-29.4,3.5c-4.5-0.6-9.1-1.7-13.6-3.2c-4.5-1.6-8.5-4.3-11.8-8.3
		c-3.7-4.1-5-10.4-3.7-18.7c1.3-8.4,4.3-17.5,9.1-27.4c4.8-9.9,11-20.1,18.4-30.4c7.5-10.3,15.4-19.6,23.9-27.9
		c8.5-8.3,17.1-14.8,25.8-19.6c8.8-4.8,16.8-6.8,24.1-6.1c4.9,0.6,8.6,2.5,11.1,5.6c2.5,3.2,3.9,7,4.4,11.5c0.5,4.5,0,9.3-1.5,14.5
		c-1.5,5.1-3.6,9.9-6.3,14.5c-3.9,6.3-7.7,11.9-11.4,16.7c-3.6,4.8-7.6,9.1-12,13c-4.3,3.8-9.1,7.3-14.5,10.3
		c-5.3,3.1-11.4,6.1-18.3,9c-2.6,1-4.5,1.2-5.9,0.7c-1.4-0.5-2.1-1.4-2.1-2.8c0-1.4,0.7-3,2.1-4.9c1.4-1.9,3.5-3.7,6.5-5.5
		c4.9-3,9.7-6.4,14.3-10.5c4.6-4,8.9-8.3,12.7-12.8c3.8-4.5,7.2-9,10.2-13.6c3-4.5,5.2-8.7,6.6-12.5c1.5-3.8,2.2-7.2,2.2-10
		c0-2.8-1-4.8-3-5.8c-1.8-0.8-4.9,0.4-9.4,3.5c-4.5,3.2-9.5,7.6-14.9,13.3c-5.4,5.7-10.9,12.2-16.5,19.6
		C681.1,509.9,676.3,517.3,672.4,524.8z"/>
	<path class="st1" d="M815.8,457.2c-4.3,4.1-7.9,7.9-10.6,11.4c-2.8,3.4-5.8,7.3-9.1,11.7c-3.9,5.1-5.9,9.8-5.9,14
		c0,4.2,1,8.5,3.1,12.7c2.1,4.2,4.7,8.6,7.8,13.1c3.1,4.5,5.8,9.7,8,15.6c4.5-1.2,8.9-2.4,13.1-3.5c4.2-1.2,8.3-2.9,12.1-5.2
		c3.8-2.3,7.4-5.2,10.6-8.9c3.2-3.6,6.1-8.4,8.7-14.3c0.6-2.8,1.7-4.5,3.4-5.3c1.7-0.8,3.2-0.9,4.7-0.3c1.5,0.6,2.6,1.8,3.4,3.7
		c0.8,1.9,0.7,4.1-0.3,6.6c-2.4,6.7-5.4,12.3-9,16.8c-3.6,4.5-7.8,8.3-12.4,11.4c-4.6,3.1-9.6,5.6-14.9,7.7
		c-5.3,2.1-10.7,4-16.2,5.8c2,3.9,2.8,7.7,2.4,11.4c-0.4,3.6-1.6,7-3.7,10.2c-2.1,3.1-4.7,6-8,8.6c-3.2,2.6-6.7,4.6-10.5,6.2
		c-7.9,3.3-16.4,5.2-25.7,5.5c-9.3,0.3-17.5-0.4-24.8-2.2c-5.1-1-8.3-2.8-9.6-5.3c-1.3-2.6-1.3-5.5-0.1-8.9
		c1.8-5.5,4.3-10.1,7.5-13.7c3.2-3.6,7-6.7,11.4-9.1c4.3-2.5,9-4.4,13.9-5.9c4.9-1.5,10-2.8,15.3-4c-3.5-5.3-6.9-10-10-14
		c-3.1-4-5.7-7.8-7.7-11.4c-2-3.5-3.1-7.1-3.4-10.8c-0.3-3.6,0.7-7.8,3.1-12.5c1.8-3.5,4.1-7.5,6.9-12c2.8-4.4,6-9,9.4-13.7
		c3.4-4.7,7.1-9.5,10.9-14.3c3.8-4.8,7.7-9.5,11.7-14c1.4-1.6,3.2-1.9,5.6-1c2.4,0.9,4.5,2.4,6.3,4.6c1.9,2.2,3.2,4.5,4,7.1
		C818.1,453.3,817.6,455.5,815.8,457.2z M750,573.8c0.2,1.2,1.5,2.2,4,3.1c2.5,0.9,5.4,1.5,8.9,1.8c3.4,0.3,7,0.2,10.6-0.1
		c3.6-0.4,6.8-1.3,9.4-2.7c2.7-1.4,4.4-3.3,5.3-5.8c0.9-2.5,0.2-5.7-1.9-9.6c-1.6,0.4-4.4,1.2-8.4,2.4c-4,1.2-8.1,2.5-12.2,3.8
		c-4.1,1.4-7.8,2.7-10.9,4C751.6,572,750,573,750,573.8z"/>
</g>
</svg>
