<?xml version="1.0" encoding="utf-8"?>
<!-- Generator: Adobe Illustrator 27.7.0, SVG Export Plug-In . SVG Version: 6.00 Build 0)  -->
<svg version="1.1" id="Layer_1" xmlns="http://www.w3.org/2000/svg" xmlns:xlink="http://www.w3.org/1999/xlink" x="0px" y="0px"
	 viewBox="0 0 456 153" style="enable-background:new 0 0 456 153;" xml:space="preserve">
<style type="text/css">
	.st0{fill:#A16207;}
	.st1{fill:#451A03;}
</style>
<g>
	<path class="st0" d="M81.2,72.6c-8.2,0-14-4.5-14.4-10.9h6c0.3,3.4,3.3,6,8.3,6c4.6,0,7.2-2.3,7.2-5.2c0-7.8-20.8-3.3-20.8-16.4
		c0-5.4,5.1-9.8,12.9-9.8c7.8,0,12.9,4.2,13.3,11.1h-5.8c-0.3-3.5-3-6.1-7.6-6.1c-4.3,0-6.9,2.1-6.9,4.9c0,8.4,20.4,3.8,20.7,16.4
		C94.1,68.2,89,72.6,81.2,72.6z"/>
	<path class="st0" d="M101.3,27.1c0-2.2,1.7-4,4-4c2.1,0,3.9,1.7,3.9,4s-1.7,4-3.9,4C103.1,31.1,101.3,29.4,101.3,27.1z M102.3,36.8
		h5.8V72h-5.8V36.8z"/>
	<path class="st0" d="M168.9,52.1c0-7.2-3.9-10.9-9.6-10.9c-5.9,0-10,3.8-10,11.4V72h-5.8V52.1c0-7.2-3.9-10.9-9.6-10.9
		c-5.9,0-10,3.8-10,11.4V72h-5.8V36.8h5.8v5.1c2.3-3.7,6.5-5.7,11.1-5.7c5.8,0,10.6,2.6,12.9,7.8c2.1-5.1,7.1-7.8,12.5-7.8
		c8,0,14.3,5,14.3,15.1V72h-5.8V52.1z"/>
	<path class="st0" d="M204.3,36.2c9.4,0,16.7,7.1,16.7,18.1c0,10.9-7.3,18.3-16.7,18.3c-6.4,0-11-3.5-13.2-7.1v23.2h-5.8V36.8h5.8
		v6.5C193.2,39.6,197.9,36.2,204.3,36.2z M203.1,41.3c-6.4,0-12,4.9-12,13c0,8.3,5.6,13.1,12,13.1c6.5,0,12-4.9,12-13.2
		C215,46,209.6,41.3,203.1,41.3z"/>
	<path class="st0" d="M229,24.5h4.8v56.3H229V24.5z"/>
	<path class="st0" d="M259.8,72.6c-10,0-17.4-7.1-17.4-18.3c0-11.1,7.1-18.1,17.4-18.1c10.2,0,16.9,7.2,16.9,16.8
		c0,1.3-0.1,2.3-0.2,3.5h-28.1c0.4,7.1,5.5,11.1,11.4,11.1c5.3,0,8.6-2.7,9.9-6.5h6.3C274.2,67.6,268.5,72.6,259.8,72.6z
		 M248.4,51.9h22.2c0.1-6.9-5.1-10.7-11.1-10.7C253.8,41.2,249,45,248.4,51.9z"/>
	<path class="st0" d="M299.6,72.6c-10,0-17.4-7.1-17.4-18.3c0-11.1,7.1-18.1,17.4-18.1c10.2,0,16.9,7.2,16.9,16.8
		c0,1.3-0.1,2.3-0.2,3.5h-28.2c0.5,7.1,5.5,11.1,11.4,11.1c5.3,0,8.6-2.7,9.9-6.5h6.3C314,67.6,308.3,72.6,299.6,72.6z M288.2,51.9
		h22.2c0.1-6.9-5.1-10.7-11.1-10.7C293.6,41.2,288.9,45,288.2,51.9z"/>
</g>
<g>
	<g>
		<g>
			<path class="st1" d="M32.1,132.2c-15.2,0-26.5-11.7-26.5-26.6v-0.2c0-14.6,11.1-26.8,26.9-26.8c9.8,0,15.6,3.3,20.4,8l-7.2,8.4
				c-3.9-3.7-8.1-5.8-13.2-5.8c-8.7,0-15,7.2-15,16.1v0.2c0,8.8,6.1,16.2,15,16.2c5.9,0,9.5-2.3,13.6-6l7.2,7.3
				C47.9,128.8,42,132.2,32.1,132.2z"/>
			<path class="st1" d="M88.5,132.2v-20.8H67.6v20.8H56.2V80.6h11.4v20.5h20.9V80.6h11.4v51.6H88.5z"/>
			<path class="st1" d="M186.8,132.2c-15.2,0-26.5-11.7-26.5-26.6v-0.2c0-14.6,11.1-26.8,26.9-26.8c9.8,0,15.6,3.3,20.4,8l-7.2,8.4
				c-3.9-3.7-8.1-5.8-13.2-5.8c-8.7,0-15,7.2-15,16.1v0.2c0,8.8,6.1,16.2,15,16.2c5.9,0,9.5-2.3,13.6-6l7.2,7.3
				C202.7,128.8,196.8,132.2,186.8,132.2z"/>
			<path class="st1" d="M260.5,132.2V80.6h11.4v41.3h11.9v10.3H260.5z"/>
			<path class="st1" d="M329.1,132.2l-4.7-11.5h-21.9l-4.7,11.5h-11.5l22.2-52h10.5l22.2,52H329.1z M313.5,93.9l-6.9,16.7h13.7
				L313.5,93.9z"/>
			<path class="st1" d="M356.7,91.1v41.2h-11.4V91.1h-15.7V80.6h42.8v10.5C372.4,91.1,356.7,91.1,356.7,91.1z"/>
			<path class="st1" d="M375.7,132.2V80.6H411v10.1h-24v10.5h24.3v10.1H387v10.9h24.4v10.1h-35.7V132.2z"/>
			<path class="st1" d="M130.9,77.9c-15,0-27.2,12.2-27.2,27.2s12.2,27.2,27.2,27.2c15,0,27.2-12.2,27.2-27.2
				C158.2,90,146,77.9,130.9,77.9z M130.9,122.1c-9.4,0-17-7.6-17-17s7.6-17,17-17s17,7.6,17,17C148,114.5,140.4,122.1,130.9,122.1z
				"/>
			<path class="st1" d="M233.8,80.9L233.8,80.9c0.2,0.9,0.3,1.7,0.3,1.7c2.5,10.7-0.7,19.9-0.7,19.9c-2.3,7.5-7.6,10.9-7.6,10.9
				c-4.9,3.5-8.9,1.2-8.9,1.2c-4.4-2.3-5.1-8.4-5.1-8.4c-0.6-5.6,3.3-8.7,3.3-8.7c2.1-1.8,4.5-0.6,4.5-0.6c2.2,1.3,2.4,3.9,2.4,3.9
				c0.2,2.4-1.3,4-1.3,4c0.9-6-1.9-6.3-1.9-6.3c-1.7-0.3-3.3,1.3-3.3,1.3c-3,3-0.8,8.6-0.8,8.6c1.8,4.5,5.7,4,5.7,4
				c5-0.3,7.9-7.2,7.9-7.2c2.1-4.8,2-11.8,2-11.8s0.5-4.9-1.3-12.7l0,0c-6.8,0.3-13.4,3.6-18,9.3c-8.6,10.7-6.8,26.3,3.9,34.8
				c10.7,8.6,26.3,6.8,34.8-3.9s6.8-26.3-3.9-34.8C242.5,83.2,238.2,81.4,233.8,80.9z"/>
		</g>
	</g>
	<g>
		<path class="st1" d="M428.5,93.1c0,2.2,1.6,3.9,4.8,5.1l6.6,2.6c7.2,3,10.9,8.1,10.9,15.2c0,5.2-1.7,9.3-5,12.3
			c-3.3,3-7.7,4.5-13.1,4.5c-3.6,0-6.6-0.5-9.1-1.6c-2.5-1.1-4.3-2.5-5.4-4.3c-1.2-1.8-2-3.7-2.4-5.5c-0.4-1.9-0.6-3.9-0.4-6h12
			c-0.1,1.9,0.3,3.4,1.1,4.7c0.9,1.3,2.3,1.9,4.2,1.9c1.5,0,2.7-0.4,3.6-1.2c0.9-0.8,1.4-1.9,1.4-3.4c0-1.4-0.5-2.5-1.4-3.3
			c-0.9-0.9-2.3-1.6-4.2-2.4c-4.1-1.6-6.8-2.8-8.2-3.5c-5.4-2.8-8.1-7.5-8.1-14.3c0-4.6,1.5-8.4,4.6-11.2c3.1-2.9,7.2-4.3,12.3-4.3
			c5.9,0,10.1,1.5,12.8,4.5c2.7,3,3.8,7,3.5,11.9h-11.7c0-1.7-0.3-3-1.1-4c-0.8-1-2-1.5-3.4-1.5c-1.4,0-2.4,0.4-3.2,1.1
			C428.8,91,428.5,91.9,428.5,93.1z"/>
	</g>
</g>
</svg>
