<?xml version="1.0" encoding="utf-8"?>
<!-- Generator: Adobe Illustrator 27.7.0, SVG Export Plug-In . SVG Version: 6.00 Build 0)  -->
<svg version="1.1" id="Layer_1" xmlns="http://www.w3.org/2000/svg" xmlns:xlink="http://www.w3.org/1999/xlink" x="0px" y="0px"
	 viewBox="0 0 76.5 40" style="enable-background:new 0 0 76.5 40;" xml:space="preserve">
<style type="text/css">
	.st0{fill:#B91C1C;stroke:#F97316;stroke-width:0.1543;stroke-miterlimit:10;}
	.st1{fill:#B91C1C;stroke:#F97316;stroke-width:0.2614;stroke-miterlimit:10;}
	.st2{fill:#B91C1C;stroke:#F97316;stroke-width:0.2095;stroke-miterlimit:10;}
</style>
<g>
	<path class="st0" d="M31.3,7.8H30V6.1h4.8v1.8h-1.3v5h-2.3v-5H31.3z"/>
	<path class="st0" d="M35.2,6.1h2.3v2.3h1.2V6.1h2.3v6.7h-2.3v-2.5h-1.2v2.5h-2.3V6.1z"/>
	<path class="st0" d="M41.6,6.1h4.1v1.8h-1.8v0.8h1.8v1.6h-1.8v0.8h2v1.8h-4.2L41.6,6.1L41.6,6.1z"/>
	<path class="st1" d="M9.4,18.6c0,0.8-0.1,1.5-0.5,2c-0.2,0.6-0.7,1-1.1,1.4c-0.5,0.3-1,0.6-1.7,0.8C5.4,22.9,4.7,23,4,23v2.7H0.4
		V14.2h3.8c0.8,0,1.5,0.1,2.1,0.2C7,14.5,7.6,14.9,8,15.2c0.5,0.3,0.9,0.8,1.1,1.4C9.3,17.2,9.4,17.8,9.4,18.6z M4,19.9L4,19.9
		c0.6,0,0.9-0.1,1.1-0.3c0.2-0.2,0.3-0.6,0.3-0.9c0-0.5-0.1-0.7-0.3-0.9c-0.2-0.2-0.6-0.3-1-0.3H4V19.9z"/>
	<path class="st1" d="M10,20c0-0.8,0.1-1.6,0.5-2.4c0.3-0.8,0.8-1.4,1.3-1.9c0.6-0.6,1.3-1,1.9-1.2c0.8-0.3,1.5-0.5,2.4-0.5
		c0.8,0,1.6,0.1,2.4,0.5c0.8,0.3,1.4,0.8,1.9,1.2c0.6,0.6,1,1.2,1.3,1.9c0.3,0.8,0.5,1.5,0.5,2.4c0,0.8-0.1,1.6-0.5,2.4
		c-0.3,0.8-0.8,1.4-1.3,1.9c-0.6,0.6-1.3,1-1.9,1.2C17.7,25.8,17,26,16.1,26c-0.8,0-1.6-0.1-2.4-0.5s-1.4-0.8-1.9-1.2
		c-0.6-0.6-1-1.2-1.3-1.9C10.2,21.5,10,20.8,10,20z M13.6,20c0,0.3,0.1,0.7,0.2,0.9c0.1,0.3,0.3,0.6,0.6,0.8
		c0.2,0.2,0.5,0.3,0.8,0.6c0.3,0.1,0.6,0.2,0.9,0.2s0.7-0.1,0.9-0.2c0.3-0.1,0.6-0.3,0.8-0.6c0.2-0.2,0.3-0.5,0.6-0.8
		c0.1-0.3,0.2-0.6,0.2-0.9s-0.1-0.7-0.2-0.9c-0.1-0.3-0.3-0.6-0.6-0.8c-0.2-0.2-0.5-0.3-0.8-0.6c-0.3-0.1-0.6-0.2-0.9-0.2
		c-0.3,0-0.7,0.1-0.9,0.2c-0.3,0.1-0.6,0.3-0.8,0.6c-0.2,0.2-0.3,0.5-0.6,0.8C13.7,19.3,13.6,19.6,13.6,20z"/>
	<path class="st1" d="M32.3,18.6c0,0.8-0.1,1.5-0.5,2c-0.2,0.6-0.7,1-1.1,1.4c-0.5,0.3-1,0.6-1.7,0.8c-0.7,0.1-1.4,0.2-2.1,0.2v2.7
		h-3.8V14.2h3.8c0.8,0,1.5,0.1,2.1,0.2c0.7,0.1,1.3,0.5,1.7,0.8c0.5,0.3,0.9,0.8,1.1,1.4C32.1,17.2,32.3,17.8,32.3,18.6z M26.9,19.9
		H27c0.5,0,0.8-0.1,1-0.3c0.2-0.2,0.3-0.6,0.3-0.9c0-0.5-0.1-0.7-0.3-0.9c-0.2-0.2-0.6-0.3-1-0.3h-0.1V19.9z"/>
	<path class="st1" d="M32.9,20c0-0.9,0.1-1.7,0.5-2.5c0.3-0.8,0.8-1.4,1.4-1.9c0.6-0.6,1.3-0.9,1.9-1.2c0.8-0.2,1.5-0.5,2.4-0.5
		c0.7,0,1.3,0.1,1.8,0.2c0.6,0.1,0.9,0.2,1.4,0.5c0.5,0.2,0.8,0.3,1.1,0.6l-1.8,3.2c-0.2-0.1-0.3-0.2-0.6-0.5
		c-0.2-0.1-0.5-0.2-0.7-0.2c-0.2-0.1-0.6-0.1-0.9-0.1s-0.7,0.1-1,0.2s-0.6,0.3-0.8,0.6c-0.2,0.2-0.5,0.5-0.6,0.8s-0.3,0.6-0.3,0.9
		s0.1,0.7,0.2,0.9c0.1,0.3,0.3,0.6,0.6,0.8c0.2,0.2,0.5,0.3,0.8,0.6c0.3,0.1,0.7,0.2,1,0.2s0.7,0,1-0.1s0.6-0.2,0.7-0.3
		c0.2-0.1,0.5-0.2,0.6-0.5l1.8,3.2c-0.3,0.2-0.7,0.5-1.1,0.7c-0.3,0.1-0.8,0.3-1.4,0.5c-0.6,0.1-1.1,0.2-1.8,0.2
		c-0.9,0-1.7-0.1-2.5-0.5c-0.8-0.3-1.5-0.7-1.9-1.2c-0.6-0.6-1-1.1-1.3-1.9C33,21.7,32.9,20.9,32.9,20z"/>
	<path class="st1" d="M42.6,20c0-0.8,0.1-1.6,0.5-2.4c0.3-0.8,0.8-1.4,1.3-1.9c0.6-0.6,1.3-1,1.9-1.2c0.8-0.3,1.5-0.5,2.4-0.5
		c0.8,0,1.6,0.1,2.4,0.5c0.8,0.3,1.4,0.8,1.9,1.2c0.6,0.6,1,1.2,1.3,1.9c0.3,0.8,0.5,1.5,0.5,2.4c0,0.8-0.1,1.6-0.5,2.4
		c-0.3,0.8-0.8,1.4-1.3,1.9c-0.6,0.6-1.3,1-1.9,1.2c-0.8,0.3-1.5,0.5-2.4,0.5c-0.8,0-1.6-0.1-2.4-0.5c-0.8-0.3-1.4-0.8-1.9-1.2
		c-0.6-0.6-1-1.2-1.3-1.9C42.7,21.5,42.6,20.8,42.6,20z M46.3,20c0,0.3,0.1,0.7,0.2,0.9c0.1,0.3,0.3,0.6,0.6,0.8
		c0.2,0.2,0.5,0.3,0.8,0.6c0.3,0.1,0.6,0.2,0.9,0.2s0.7-0.1,0.9-0.2c0.3-0.1,0.6-0.3,0.8-0.6c0.2-0.2,0.3-0.5,0.6-0.8
		c0.1-0.3,0.2-0.6,0.2-0.9s-0.1-0.7-0.2-0.9c-0.1-0.3-0.3-0.6-0.6-0.8c-0.2-0.2-0.5-0.3-0.8-0.6c-0.3-0.1-0.6-0.2-0.9-0.2
		s-0.7,0.1-0.9,0.2c-0.3,0.1-0.6,0.3-0.8,0.6c-0.2,0.2-0.3,0.5-0.6,0.8C46.3,19.3,46.3,19.6,46.3,20z"/>
	<path class="st1" d="M55.8,14.2h4c0.8,0,1.5,0.1,2.1,0.3c0.7,0.2,1.1,0.5,1.6,0.9c0.5,0.3,0.8,0.9,1.1,1.4c0.2,0.6,0.3,1.2,0.3,1.9
		c0,0.6-0.1,1-0.2,1.5s-0.3,0.8-0.6,1c-0.2,0.3-0.5,0.6-0.8,0.8l2.2,3.8h-4.3l-1.7-2.9v2.9h-3.8L55.8,14.2L55.8,14.2z M59.4,19.9
		h0.2c0.5,0,0.8-0.1,1.1-0.3c0.3-0.2,0.5-0.6,0.5-1c0-0.5-0.1-0.8-0.5-1c-0.3-0.2-0.7-0.3-1.1-0.3h-0.2V19.9z"/>
	<path class="st1" d="M65.9,14.2H69l3.2,4.4v-4.4h3.7v11.5h-3.1l-3.2-4.4v4.4h-3.7V14.2z"/>
	<path class="st2" d="M23.4,27.9h2.5l2.5,3.5l2.4-3.5h2.5V37h-3.1v-3.4l-1.9,2.8l-1.9-2.8V37h-3.1L23.4,27.9L23.4,27.9z"/>
	<path class="st2" d="M34.2,27.9h3.2V37h-3.2V27.9z"/>
	<path class="st2" d="M38.4,27.9h2.5l2.6,3.5v-3.5h3V37h-2.5l-2.7-3.5V37h-3L38.4,27.9L38.4,27.9z"/>
	<path class="st2" d="M47.4,27.9h5.5v2.4h-2.5v1h2.5v2.2h-2.5v1.1h2.7V37h-5.6L47.4,27.9L47.4,27.9z"/>
</g>
</svg>
